<?xml version="1.0" encoding="UTF-8"?>
<svg version="1.1" xmlns="http://www.w3.org/2000/svg" width="204" height="201">
<path d="M0 0 C67.32 0 134.64 0 204 0 C204 66.33 204 132.66 204 201 C136.68 201 69.36 201 0 201 C0 134.67 0 68.34 0 0 Z " fill="#FEFEFE" transform="translate(0,0)"/>
<path d="M0 0 C14.6499904 12.2878214 26.3942767 29.68238253 28.51953125 49.11328125 C30.16891963 70.75197259 27.10003363 92.22720187 12.875 109.4296875 C10.22350783 112.46865505 7.40406118 115.29534941 4.51953125 118.11328125 C3.44251953 119.22123047 3.44251953 119.22123047 2.34375 120.3515625 C-13.36542126 135.58738773 -34.43966122 139.65947938 -55.5546875 139.390625 C-76.8253862 138.70841494 -94.44216311 127.97531342 -108.97265625 112.96875 C-125.0933769 94.6132254 -128.86737063 72.73548352 -127.48046875 49.11328125 C-125.58841483 31.42844392 -116.05719094 16.2004903 -103.48046875 4.11328125 C-102.825625 3.45070313 -102.17078125 2.788125 -101.49609375 2.10546875 C-93.02076895 -5.97144335 -81.63441631 -11.63134235 -70.48046875 -14.88671875 C-69.75472656 -15.11101563 -69.02898437 -15.3353125 -68.28125 -15.56640625 C-44.3051922 -21.67548904 -19.17848627 -14.80797666 0 0 Z " fill="#AB8658" transform="translate(151.48046875,36.88671875)"/>
<path d="M0 0 C4.74773536 1.67896339 8.88657765 4.17647393 13.1875 6.75 C14.32469482 7.42434082 14.32469482 7.42434082 15.48486328 8.11230469 C19.45992516 10.47236494 23.42050019 12.85564907 27.375 15.25 C30.66479796 17.23388154 33.99635243 19.10899897 37.375 20.9375 C41.49927643 23.17369566 45.60727716 25.43419785 49.6875 27.75 C50.70199219 28.32234375 51.71648437 28.8946875 52.76171875 29.484375 C53.50035156 29.98453125 54.23898438 30.4846875 55 31 C55 31.66 55 32.32 55 33 C54.50757812 33.44214844 54.01515625 33.88429687 53.5078125 34.33984375 C51.79642288 35.90101131 51.79642288 35.90101131 51.7421875 38.19140625 C51.78601563 38.97386719 51.82984375 39.75632813 51.875 40.5625 C52.08520179 44.82959641 52.08520179 44.82959641 51 47 C50.87346461 48.45656294 50.77235954 49.91541593 50.6875 51.375 C50.35499833 54.55678524 50.12675135 55.81892664 48.25 58.5 C45.74934139 60.16710574 43.98763869 60.76413379 41 61 C40.01 60.505 40.01 60.505 39 60 C36.98347806 60.9662501 34.98320018 61.96708324 33 63 C32.34 63 31.68 63 31 63 C30.505 59.535 30.505 59.535 30 56 C35.75 52 35.75 52 38 52 C38 50.68 38 49.36 38 48 C37.071875 47.71125 36.14375 47.4225 35.1875 47.125 C32 46 32 46 29 44 C28.01 44 27.02 44 26 44 C25.67 44.99 25.34 45.98 25 47 C23.14453125 47.58984375 23.14453125 47.58984375 20.8125 47.9375 C16.28715399 48.7805979 13.68252907 50.30546654 10 53 C9.34 53 8.68 53 8 53 C8 55.31 8 57.62 8 60 C7.34 60 6.68 60 6 60 C6 61.32 6 62.64 6 64 C7.07121094 64.40605469 7.07121094 64.40605469 8.1640625 64.8203125 C11.0227179 66.00945014 13.66646292 67.37715571 16.375 68.875 C17.33664063 69.39964844 18.29828125 69.92429687 19.2890625 70.46484375 C20.89214469 71.37264101 22.47920458 72.31176051 24.0234375 73.31640625 C26.8384401 75.1442473 28.81792627 75.98928978 32.1875 76.1875 C37.0829073 74.66270101 41.08834403 72.20086953 45.42578125 69.49609375 C48 68 48 68 50 68 C50 67.01 50 66.02 50 65 C50.99 65 51.98 65 53 65 C53 65.66 53 66.32 53 67 C53.66 67 54.32 67 55 67 C55 69.31 55 71.62 55 74 C56.98 73.34 58.96 72.68 61 72 C61 67.38 61 62.76 61 58 C62.98 58 64.96 58 67 58 C66.505 55.03 66.505 55.03 66 52 C64.35 51.67 62.7 51.34 61 51 C61 45.72 61 40.44 61 35 C62.485 35.495 62.485 35.495 64 36 C64 28.08 64 20.16 64 12 C64.33 12 64.66 12 65 12 C65 20.58 65 29.16 65 38 C66.98 38.66 68.96 39.32 71 40 C72.78531667 40.92944507 74.54352829 41.91250496 76.2734375 42.94140625 C77.25610596 43.52132324 78.23877441 44.10124023 79.2512207 44.69873047 C80.28206787 45.31377441 81.31291504 45.92881836 82.375 46.5625 C84.52168164 47.82759323 86.66881858 49.09191418 88.81640625 50.35546875 C89.86586426 50.97470215 90.91532227 51.59393555 91.99658203 52.23193359 C96.08683265 54.63980182 100.18956624 57.02357069 104.3125 59.375 C104.95687012 59.74955322 105.60124023 60.12410645 106.26513672 60.51000977 C110.66541165 63.00734928 113.17452117 63.33116657 118 62 C118.33 63.65 118.66 65.3 119 67 C119.99 66.67 120.98 66.34 122 66 C122.33 66.99 122.66 67.98 123 69 C120.05955267 69.86970977 118.56340172 70.25468845 115.71875 68.96875 C114.23958333 67.98958333 112.76041667 67.01041667 111.28125 66.03125 C107.81571712 64.46463925 105.4986551 65.53093275 102.015625 66.62109375 C99.96365345 67.5699036 98.56917527 68.35469224 97 70 C96.1023381 73.34392181 95.95389123 76.54842935 96 80 C95.01 80 94.02 80 93 80 C93.33 80.66 93.66 81.32 94 82 C94.78375 81.54625 95.5675 81.0925 96.375 80.625 C101.44765053 79.75040508 103.80058168 81.75611941 108.0234375 84.421875 C109.00183594 85.20304687 109.00183594 85.20304687 110 86 C110 86.66 110 87.32 110 88 C109.01 88 108.02 88 107 88 C107.33 88.66 107.66 89.32 108 90 C108.70125 89.690625 109.4025 89.38125 110.125 89.0625 C113 88 113 88 116.25 87.5 C117.1575 87.335 118.065 87.17 119 87 C119.33 86.34 119.66 85.68 120 85 C120.66 85 121.32 85 122 85 C122 85.66 122 86.32 122 87 C122.61875 87.0825 123.2375 87.165 123.875 87.25 C126 88 126 88 127.1328125 90.046875 C127.41898438 90.69140625 127.70515625 91.3359375 128 92 C113.46492446 108.81715262 97.69895613 121.1056821 75 124 C51.31165588 125.40778397 31.72133537 121.48058919 13 106 C-1.2551328 93.30733778 -11.83144431 76.24833061 -14 57 C-15.24431636 35.46178175 -11.98207258 19.55591574 -1 1 C-0.67 0.67 -0.34 0.34 0 0 Z " fill="#724E21" transform="translate(38,52)"/>
<path d="M0 0 C1.5768457 -0.0309375 1.5768457 -0.0309375 3.18554688 -0.0625 C26.31099887 -0.17620843 48.55398797 11.09613698 65.13525391 26.70654297 C81.74166709 43.21892802 91.68950997 66.10868614 91.87866211 89.4699707 C91.84417659 117.41473519 83.76171956 141.11878738 63.6875 161.25 C46.05495196 177.69604888 24.62976846 186.42324214 0.5625 186.4375 C-0.50226563 186.44974609 -1.56703125 186.46199219 -2.6640625 186.47460938 C-28.51846564 186.52167443 -50.37093401 176.41274139 -68.87109375 158.81640625 C-75.03655277 152.30901536 -79.72816237 144.9090853 -84.3125 137.25 C-84.73402344 136.56550781 -85.15554687 135.88101563 -85.58984375 135.17578125 C-95.78938043 116.94769361 -97.8424406 90.1667874 -92.625 70.3125 C-91.90883174 67.94113167 -91.14204915 65.58412359 -90.3125 63.25 C-89.93867187 62.19167969 -89.56484375 61.13335937 -89.1796875 60.04296875 C-79.98674842 36.33005635 -62.57710552 18.31864213 -39.75 7.4375 C-26.44660981 1.7752323 -14.31808377 0.06946311 0 0 Z M-60.9609375 41.484375 C-73.66291356 56.42291163 -79.5305585 73.55939165 -79.625 92.875 C-79.63055908 93.82858398 -79.63611816 94.78216797 -79.6418457 95.76464844 C-79.5444291 105.43969894 -78.20299794 114.43243208 -74.125 123.25 C-73.81385254 123.93296143 -73.50270508 124.61592285 -73.18212891 125.31958008 C-63.63390395 145.80175168 -47.8313141 160.37333003 -26.640625 168.27734375 C-4.51057354 174.74492921 17.98387978 172.2480493 38.12890625 161.31640625 C42.71195423 158.71450293 46.79377472 155.80704978 50.6875 152.25 C51.93273437 151.12464844 51.93273437 151.12464844 53.203125 149.9765625 C67.02822026 136.85513975 76.18039108 118.58818087 77.0390625 99.41015625 C77.6086994 75.09104248 70.95042091 55.11082766 54.125 37.1875 C37.70830543 21.31969188 17.50875988 14.65817233 -5.02026367 14.90307617 C-27.02203866 15.54102379 -45.7896215 25.78326702 -60.9609375 41.484375 Z " fill="#EFEDD4" transform="translate(103.3125,4.75)"/>
<path d="M0 0 C0 9.9 0 19.8 0 30 C-4.82625 30.04125 -9.6525 30.0825 -14.625 30.125 C-16.13658691 30.14320801 -17.64817383 30.16141602 -19.20556641 30.18017578 C-21.01033447 30.18766846 -21.01033447 30.18766846 -22.8515625 30.1953125 C-24.07697754 30.20578613 -25.30239258 30.21625977 -26.56494141 30.22705078 C-30.03833297 29.99746626 -32.76606976 29.2511457 -36 28 C-36 25.69 -36 23.38 -36 21 C-36.66 21.66 -37.32 22.32 -38 23 C-37.67 23.33 -37.34 23.66 -37 24 C-36.957279 25.66611905 -36.95936168 27.33382885 -37 29 C-37 29.66 -37 30.32 -37 31 C-37 46.33333333 -37 61.66666667 -37 77 C-37.99 77.33 -38.98 77.66 -40 78 C-40 62.49 -40 46.98 -40 31 C-40.66 31 -41.32 31 -42 31 C-42 28.36 -42 25.72 -42 23 C-41.34 23 -40.68 23 -40 23 C-40 18.71 -40 14.42 -40 10 C-39.01 9.67 -38.02 9.34 -37 9 C-36.67 8.01 -36.34 7.02 -36 6 C-35.01 6.33 -34.02 6.66 -33 7 C-36.71274665 2.4434473 -41.79007402 0.42599607 -47 -2 C-47 -1.01 -47 -0.02 -47 1 C-44.525 1.99 -44.525 1.99 -42 3 C-42 6.15580476 -42.07871792 9.27115315 -42.21875 12.421875 C-42.26386719 13.44667969 -42.30898437 14.47148438 -42.35546875 15.52734375 C-42.40316406 16.59082031 -42.45085937 17.65429688 -42.5 18.75 C-42.54769531 19.82894531 -42.59539062 20.90789063 -42.64453125 22.01953125 C-42.76223886 24.6797232 -42.88075746 27.33987648 -43 30 C-53.54374854 30.70640499 -60.20505505 30.46634446 -69 24 C-69.99 23.67 -70.98 23.34 -72 23 C-72 22.34 -72 21.68 -72 21 C-72.825 20.773125 -73.65 20.54625 -74.5 20.3125 C-78.73136618 18.72573768 -82.25171013 16.49251763 -86 14 C-64.91953795 -9.18850825 -27.36889968 -13.68444984 0 0 Z " fill="#7B5A36" transform="translate(135,27)"/>
<path d="M0 0 C3.52448507 0.66701703 6.18300138 2.10357831 9.25 3.9375 C10.14203125 4.46214844 11.0340625 4.98679687 11.953125 5.52734375 C12.62859375 6.01332031 13.3040625 6.49929687 14 7 C14 7.66 14 8.32 14 9 C13.01 9 12.02 9 11 9 C9.21782569 10.0292459 9.21782569 10.0292459 8 12 C7.41907008 15.19245998 7.41907008 15.19245998 7.3125 18.6875 C7.24675781 19.86699219 7.18101563 21.04648437 7.11328125 22.26171875 C7.07589844 23.16535156 7.03851563 24.06898437 7 25 C6.34 25 5.68 25 5 25 C5 27.64 5 30.28 5 33 C5.66 33 6.32 33 7 33 C7 48.51 7 64.02 7 80 C7.66 79.67 8.32 79.34 9 79 C9.33 63.82 9.66 48.64 10 33 C9.01 32.505 9.01 32.505 8 32 C8.66 30.02 9.32 28.04 10 26 C9.34 25.67 8.68 25.34 8 25 C8.99 24.01 9.98 23.02 11 22 C11.97608217 24.92824652 12.08226668 26.95613276 12 30 C13.65 30.33 15.3 30.66 17 31 C17 32.65 17 34.3 17 36 C15.35 36 13.7 36 12 36 C11.67 37.32 11.34 38.64 11 40 C11.66 40 12.32 40 13 40 C13 47.59 13 55.18 13 63 C12.67 63 12.34 63 12 63 C11.67 67.95 11.34 72.9 11 78 C12.98 78 14.96 78 17 78 C17.38063221 80.3260857 17.71269945 82.66055264 18 85 C17 86 17 86 14.4375 86.0625 C13.633125 86.041875 12.82875 86.02125 12 86 C11.96261719 86.91523437 11.92523438 87.83046875 11.88671875 88.7734375 C11.78810547 90.55621094 11.78810547 90.55621094 11.6875 92.375 C11.60048828 94.15003906 11.60048828 94.15003906 11.51171875 95.9609375 C11.34285156 96.96382813 11.17398438 97.96671875 11 99 C8 101 8 101 5 101 C5 98.69 5 96.38 5 94 C4.34 94 3.68 94 3 94 C3 93.34 3 92.68 3 92 C2.01 92 1.02 92 0 92 C0 92.99 0 93.98 0 95 C-2.50860896 96.54491764 -5.028632 98.06003906 -7.5625 99.5625 C-8.26697266 100.00013672 -8.97144531 100.43777344 -9.69726562 100.88867188 C-13.27577962 102.98300956 -15.40281233 103.99742592 -19.625 104.015625 C-23.38789267 102.88327304 -26.15990329 101.34983125 -29.4375 99.1875 C-34.1708946 96.12796923 -38.89811627 93.40088646 -44 91 C-44 89.68 -44 88.36 -44 87 C-43.34 87 -42.68 87 -42 87 C-42.165 85.948125 -42.33 84.89625 -42.5 83.8125 C-42 80 -42 80 -40.53515625 78.4921875 C-36.17350996 75.6074551 -31.92710007 74.25963312 -26.78515625 73.45703125 C-25.90150391 73.23080078 -25.90150391 73.23080078 -25 73 C-24.67 72.34 -24.34 71.68 -24 71 C-23.01 71 -22.02 71 -21 71 C-20.505 69.515 -20.505 69.515 -20 68 C-19.79375 68.598125 -19.5875 69.19625 -19.375 69.8125 C-17.49073918 72.81018767 -15.18867916 73.61361776 -12 75 C-12 76.32 -12 77.64 -12 79 C-14.31 80.32 -16.62 81.64 -19 83 C-19 85.31 -19 87.62 -19 90 C-18.09507813 89.54947266 -18.09507813 89.54947266 -17.171875 89.08984375 C-16.37265625 88.70957031 -15.5734375 88.32929687 -14.75 87.9375 C-13.96109375 87.55464844 -13.1721875 87.17179687 -12.359375 86.77734375 C-9.69524895 85.89959361 -8.61630437 86.18900119 -6 87 C-3.33393981 86.00974907 -2.28610235 85.5722047 -1 83 C-0.79907217 81.50420396 -0.63663934 80.00303276 -0.5 78.5 C-0.11111111 74.22222222 -0.11111111 74.22222222 1 72 C1.06996014 70.29297265 1.08440154 68.58331997 1.0625 66.875 C1.05347656 65.96492188 1.04445312 65.05484375 1.03515625 64.1171875 C1.02355469 63.41851562 1.01195312 62.71984375 1 62 C2.32 61.34 3.64 60.68 5 60 C5 59.34 5 58.68 5 58 C4.29746094 57.73832031 3.59492187 57.47664063 2.87109375 57.20703125 C-0.22510266 55.905365 -3.02814149 54.36694428 -5.9375 52.6875 C-6.52378174 52.34992676 -7.11006348 52.01235352 -7.71411133 51.66455078 C-14.48388947 47.75075939 -21.20449643 43.75141987 -27.91967773 39.74487305 C-33.45898408 36.45230654 -39.05134351 33.33696888 -44.77856445 30.38134766 C-47 29 -47 29 -49 26 C-47.92492371 24.70145279 -46.83956264 23.41141639 -45.75 22.125 C-45.14671875 21.40570313 -44.5434375 20.68640625 -43.921875 19.9453125 C-40.66304348 16.64673913 -40.66304348 16.64673913 -38 16 C-35.5453777 17.01386573 -33.50453746 18.02723255 -31.25 19.375 C-30.64800781 19.71789062 -30.04601562 20.06078125 -29.42578125 20.4140625 C-27.94227881 21.26177818 -26.46998513 22.12905505 -25 23 C-25 23.66 -25 24.32 -25 25 C-24.12601563 25.17015625 -24.12601563 25.17015625 -23.234375 25.34375 C-20.81817298 26.05340374 -19.31661191 27.07817101 -17.25 28.5 C-10.7240643 32.30588183 -3.35462329 31.90073515 4 32 C4 31.32420898 4 30.64841797 4 29.95214844 C4 21.63476562 4 13.31738281 4 5 C2.68 4.34 1.36 3.68 0 3 C0 2.01 0 1.02 0 0 Z " fill="#B3941D" transform="translate(88,25)"/>
<path d="M0 0 C4.74773536 1.67896339 8.88657765 4.17647393 13.1875 6.75 C14.32469482 7.42434082 14.32469482 7.42434082 15.48486328 8.11230469 C19.45992516 10.47236494 23.42050019 12.85564907 27.375 15.25 C30.66479796 17.23388154 33.99635243 19.10899897 37.375 20.9375 C41.49927643 23.17369566 45.60727716 25.43419785 49.6875 27.75 C50.70199219 28.32234375 51.71648437 28.8946875 52.76171875 29.484375 C53.50035156 29.98453125 54.23898438 30.4846875 55 31 C55 31.66 55 32.32 55 33 C54.50757812 33.44214844 54.01515625 33.88429687 53.5078125 34.33984375 C51.79642288 35.90101131 51.79642288 35.90101131 51.7421875 38.19140625 C51.78601563 38.97386719 51.82984375 39.75632813 51.875 40.5625 C52.08520179 44.82959641 52.08520179 44.82959641 51 47 C50.87346461 48.45656294 50.77235954 49.91541593 50.6875 51.375 C50.35499833 54.55678524 50.12675135 55.81892664 48.25 58.5 C45.74934139 60.16710574 43.98763869 60.76413379 41 61 C40.01 60.505 40.01 60.505 39 60 C36.98347806 60.9662501 34.98320018 61.96708324 33 63 C32.34 63 31.68 63 31 63 C30.505 59.535 30.505 59.535 30 56 C35.75 52 35.75 52 38 52 C38 50.68 38 49.36 38 48 C37.071875 47.71125 36.14375 47.4225 35.1875 47.125 C32 46 32 46 29 44 C28.01 44 27.02 44 26 44 C25.67 44.99 25.34 45.98 25 47 C21.75 47.75 21.75 47.75 18 48 C15.9375 46.3125 15.9375 46.3125 14 44 C12.9275 43.360625 11.855 42.72125 10.75 42.0625 C9.38875 41.0415625 9.38875 41.0415625 8 40 C7.625 37.25 7.625 37.25 8 35 C8.66 35 9.32 35 10 35 C10.33 33.68 10.66 32.36 11 31 C11.33 31.33 11.66 31.66 12 32 C12.33 30.68 12.66 29.36 13 28 C12.01 28 11.02 28 10 28 C10 27.34 10 26.68 10 26 C4.54040229 25.15000275 0.76350926 28.13417496 -3.6875 30.875 C-4.45900391 31.33519531 -5.23050781 31.79539062 -6.02539062 32.26953125 C-10.26391036 34.80431541 -10.26391036 34.80431541 -14 38 C-13.4633142 25.8709009 -8.96127054 8.96127054 0 0 Z " fill="#6A4A1E" transform="translate(38,52)"/>
<path d="M0 0 C0 0.66 0 1.32 0 2 C0.99 2 1.98 2 3 2 C2.75 4.375 2.75 4.375 2 7 C-0.0625 8.3125 -0.0625 8.3125 -2 9 C-1.65802544 11.87954644 -1.65802544 11.87954644 0 15 C2.84172736 17.01050912 5.84788924 18.53420364 9 20 C6.24829249 22.9555377 3.58029701 25.11563315 0 27 C-0.66 27 -1.32 27 -2 27 C-2 29.31 -2 31.62 -2 34 C-2.66 34 -3.32 34 -4 34 C-4 35.32 -4 36.64 -4 38 C-3.28585938 38.27070312 -2.57171875 38.54140625 -1.8359375 38.8203125 C1.0227179 40.00945014 3.66646292 41.37715571 6.375 42.875 C7.33664063 43.39964844 8.29828125 43.92429688 9.2890625 44.46484375 C10.89214469 45.37264101 12.47920458 46.31176051 14.0234375 47.31640625 C16.8384401 49.1442473 18.81792627 49.98928978 22.1875 50.1875 C27.0829073 48.66270101 31.08834403 46.20086953 35.42578125 43.49609375 C38 42 38 42 40 42 C40 41.01 40 40.02 40 39 C40.99 39 41.98 39 43 39 C43 39.66 43 40.32 43 41 C43.66 41 44.32 41 45 41 C45 43.31 45 45.62 45 48 C46.98 47.67 48.96 47.34 51 47 C50.505 47.99 50.505 47.99 50 49 C49.030625 49.28875 48.06125 49.5775 47.0625 49.875 C43.91236435 50.62807306 43.91236435 50.62807306 43.109375 52.859375 C41.63852281 55.69749825 39.89400442 56.71133161 37.1875 58.375 C36.33542969 58.91898438 35.48335937 59.46296875 34.60546875 60.0234375 C32 61 32 61 29.17578125 60.1640625 C28.45777344 59.77992188 27.73976562 59.39578125 27 59 C27 60.32 27 61.64 27 63 C23.55037835 61.70219433 20.46189528 60.19594122 17.3125 58.28515625 C16.44882813 57.76373047 15.58515625 57.24230469 14.6953125 56.70507812 C13.80585937 56.16302734 12.91640625 55.62097656 12 55.0625 C11.11054687 54.52431641 10.22109375 53.98613281 9.3046875 53.43164062 C7.64350542 52.42625356 5.98323842 51.41935172 4.32421875 50.41040039 C3.55722656 49.94496826 2.79023437 49.47953613 2 49 C1.11957031 48.44626709 0.23914063 47.89253418 -0.66796875 47.32202148 C-2.84319671 45.83561192 -2.84319671 45.83561192 -5 46 C-5.20086443 49.71599191 -5.1519437 50.77208445 -3 54 C-1.09019334 54.72863276 0.82276651 55.45055585 2.75390625 56.12060547 C6.61350037 57.63172047 10.01331076 59.84457824 13.5 62.0625 C14.22703125 62.50916016 14.9540625 62.95582031 15.703125 63.41601562 C17.50784711 64.55075161 19.25972052 65.76871003 21 67 C21 67.66 21 68.32 21 69 C22.65 69.33 24.3 69.66 26 70 C25.34 72.31 24.68 74.62 24 77 C23.34 77 22.68 77 22 77 C22.33 75.02 22.66 73.04 23 71 C21.01432292 71.06510417 19.02864583 71.13020833 17.04296875 71.1953125 C15 71 15 71 12 69 C11.3125 66.875 11.3125 66.875 11 65 C10.07767578 64.92652344 10.07767578 64.92652344 9.13671875 64.8515625 C8.32847656 64.77679688 7.52023438 64.70203125 6.6875 64.625 C5.88699219 64.55539063 5.08648437 64.48578125 4.26171875 64.4140625 C2 64 2 64 -1 62 C-2.91765782 62.05607187 -4.83450637 62.1430435 -6.75 62.25 C-9.98046875 62.046875 -9.98046875 62.046875 -13 61 C-16.36916866 56.69593114 -18.13657088 52.10940244 -20 47 C-20.34675781 46.11441406 -20.69351562 45.22882813 -21.05078125 44.31640625 C-23.77641618 36.86289271 -24.23969617 29.24722289 -24.375 21.375 C-24.41238281 20.54226562 -24.44976563 19.70953125 -24.48828125 18.8515625 C-24.54844418 14.65352719 -24.47428075 12.63947966 -21.9140625 9.1875 C-18.70099624 6.77554678 -15.487116 4.61444438 -12 2.625 C-11.39671875 2.25761719 -10.7934375 1.89023438 -10.171875 1.51171875 C-6.4087971 -0.65614134 -4.16269076 -1.46640243 0 0 Z " fill="#463B1D" transform="translate(48,78)"/>
<path d="M0 0 C5.23799388 2.00063472 9.95486211 4.65911949 14.8125 7.4375 C15.69615234 7.92798828 16.57980469 8.41847656 17.49023438 8.92382812 C18.32490234 9.40142578 19.15957031 9.87902344 20.01953125 10.37109375 C20.78370361 10.80349365 21.54787598 11.23589355 22.33520508 11.68139648 C22.8845874 12.11653564 23.43396973 12.5516748 24 13 C24 13.99 24 14.98 24 16 C17.4 16.66 10.8 17.32 4 18 C5.8975 19.0725 7.795 20.145 9.75 21.25 C16.15480228 24.89447815 22.49127547 28.65020485 28.8125 32.4375 C29.70227539 32.96956055 30.59205078 33.50162109 31.50878906 34.04980469 C32.33733398 34.54770508 33.16587891 35.04560547 34.01953125 35.55859375 C34.76307861 36.00517334 35.50662598 36.45175293 36.27270508 36.91186523 C38 38 38 38 39 39 C39.07258946 41.18639453 39.08373783 43.37500389 39.0625 45.5625 C39.05347656 46.76003906 39.04445312 47.95757812 39.03515625 49.19140625 C39.02355469 50.11824219 39.01195312 51.04507813 39 52 C37.96875 51.484375 36.9375 50.96875 35.875 50.4375 C32.26947626 48.86604974 29.84321557 48.96889338 26 50 C26 50.66 26 51.32 26 52 C27.258125 51.79375 28.51625 51.5875 29.8125 51.375 C33.4014758 50.78664331 33.75073878 50.83382585 37 53 C36.67 54.98 36.34 56.96 36 59 C36.99 59.33 37.98 59.66 39 60 C39.33 50.43 39.66 40.86 40 31 C40.66 31 41.32 31 42 31 C42.495 31.99 42.495 31.99 43 33 C43.66 32.67 44.32 32.34 45 32 C46.99960012 31.960008 49.00047242 31.95653201 51 32 C50.05687704 44.26059848 45.02544035 54.50625556 39 65 C36.69 63.68 34.38 62.36 32 61 C32 60.34 32 59.68 32 59 C31.34 59 30.68 59 30 59 C29.67 59.99 29.34 60.98 29 62 C27.00390625 62.73046875 27.00390625 62.73046875 24.5625 63.1875 C23.75941406 63.34605469 22.95632812 63.50460938 22.12890625 63.66796875 C20 64 20 64 18 64 C18 65.98 18 67.96 18 70 C17.67 70 17.34 70 17 70 C17 67.36 17 64.72 17 62 C17.99 62 18.98 62 20 62 C20 61.34 20 60.68 20 60 C19.278125 59.731875 18.55625 59.46375 17.8125 59.1875 C15 58 15 58 12.5625 56.3125 C9.29357 54.63817 7.48829005 55.10764673 4 56 C4 57.98 4 59.96 4 62 C3.67 62 3.34 62 3 62 C3 59.36 3 56.72 3 54 C3.99 54 4.98 54 6 54 C5.82597656 53.02160156 5.82597656 53.02160156 5.6484375 52.0234375 C5.34545227 49.08880917 5.29507041 46.87525827 6 44 C8.92580749 41.09648437 12.08184047 39.26410694 16 38 C19.38018945 38.2930508 21.69068566 39.21391816 24.5 41.0625 C27.45971824 42.85646488 29.47691734 43.42704032 33 43 C32.34 42.34 31.68 41.68 31 41 C30.34 41 29.68 41 29 41 C28.505 39.02 28.505 39.02 28 37 C26.68 37 25.36 37 24 37 C23.505 37.99 23.505 37.99 23 39 C13.69911781 34.2005063 4.60144791 29.08890973 -4.4375 23.8125 C-5.45521484 23.21872559 -6.47292969 22.62495117 -7.52148438 22.01318359 C-9.46303969 20.87508543 -11.4005894 19.73011812 -13.33349609 18.57739258 C-15.03548571 17.57056646 -16.75102939 16.58608459 -18.48291016 15.6315918 C-23.80882371 12.60124943 -23.80882371 12.60124943 -24.78125 9.54296875 C-24.6884375 8.76566406 -24.595625 7.98835938 -24.5 7.1875 C-24.4278125 6.39730469 -24.355625 5.60710937 -24.28125 4.79296875 C-24.1884375 4.20128906 -24.095625 3.60960938 -24 3 C-15.97497656 2.20318916 -8.06350113 1.87132711 0 2 C0 1.34 0 0.68 0 0 Z " fill="#B4AC17" transform="translate(128,78)"/>
<path d="M0 0 C5 1 5 1 12 4 C12 13.9 12 23.8 12 34 C7.17375 34.04125 2.3475 34.0825 -2.625 34.125 C-4.89238037 34.15231201 -4.89238037 34.15231201 -7.20556641 34.18017578 C-9.01033447 34.18766846 -9.01033447 34.18766846 -10.8515625 34.1953125 C-12.07697754 34.20578613 -13.30239258 34.21625977 -14.56494141 34.22705078 C-18.03833297 33.99746626 -20.76606976 33.2511457 -24 32 C-24 29.69 -24 27.38 -24 25 C-24.66 25.66 -25.32 26.32 -26 27 C-25.67 27.33 -25.34 27.66 -25 28 C-24.957279 29.66611905 -24.95936168 31.33382885 -25 33 C-25 33.66 -25 34.32 -25 35 C-25 50.33333333 -25 65.66666667 -25 81 C-26.485 81.495 -26.485 81.495 -28 82 C-28 66.49 -28 50.98 -28 35 C-28.66 35 -29.32 35 -30 35 C-30 32.36 -30 29.72 -30 27 C-29.34 27 -28.68 27 -28 27 C-28 22.71 -28 18.42 -28 14 C-27.01 13.67 -26.02 13.34 -25 13 C-24.67 12.01 -24.34 11.02 -24 10 C-19.00119239 12.03797541 -14.39367709 14.38100899 -9.75 17.125 C-5.0462913 19.9137174 -5.0462913 19.9137174 0 22 C0 14.74 0 7.48 0 0 Z " fill="#86633F" transform="translate(123,23)"/>
<path d="M0 0 C0 0.66 0 1.32 0 2 C0.99 2 1.98 2 3 2 C2.75 4.375 2.75 4.375 2 7 C-0.0625 8.3125 -0.0625 8.3125 -2 9 C-1.65802544 11.87954644 -1.65802544 11.87954644 0 15 C2.84172736 17.01050912 5.84788924 18.53420364 9 20 C6.24829249 22.9555377 3.58029701 25.11563315 0 27 C-0.66 27 -1.32 27 -2 27 C-2 29.31 -2 31.62 -2 34 C-2.66 34 -3.32 34 -4 34 C-4 35.32 -4 36.64 -4 38 C-3.236875 38.28875 -2.47375 38.5775 -1.6875 38.875 C1 40 1 40 4 42 C3.44014404 41.98952637 2.88028809 41.97905273 2.3034668 41.96826172 C-0.23514307 41.92666674 -2.7736812 41.90066315 -5.3125 41.875 C-6.63411133 41.84986328 -6.63411133 41.84986328 -7.98242188 41.82421875 C-9.25375977 41.81455078 -9.25375977 41.81455078 -10.55078125 41.8046875 C-11.33106689 41.79421387 -12.11135254 41.78374023 -12.9152832 41.77294922 C-15.3065848 41.87119141 -15.3065848 41.87119141 -18 44 C-18.99 44 -19.98 44 -21 44 C-23.72161807 36.5609106 -24.2401547 29.22054471 -24.375 21.375 C-24.41238281 20.54226562 -24.44976563 19.70953125 -24.48828125 18.8515625 C-24.54844418 14.65352719 -24.47428075 12.63947966 -21.9140625 9.1875 C-18.70099624 6.77554678 -15.487116 4.61444438 -12 2.625 C-11.39671875 2.25761719 -10.7934375 1.89023438 -10.171875 1.51171875 C-6.4087971 -0.65614134 -4.16269076 -1.46640243 0 0 Z " fill="#66471D" transform="translate(48,78)"/>
<path d="M0 0 C5.47932789 1.54545146 10.11429181 4.15543212 15 7 C15 7.66 15 8.32 15 9 C15.87398437 9.17015625 15.87398437 9.17015625 16.765625 9.34375 C19.18182702 10.05340374 20.68338809 11.07817101 22.75 12.5 C29.2759357 16.30588183 36.64537671 15.90073515 44 16 C44 18.31 44 20.62 44 23 C43.21753906 23.06058594 42.43507812 23.12117188 41.62890625 23.18359375 C40.11103516 23.30927734 40.11103516 23.30927734 38.5625 23.4375 C37.55316406 23.51871094 36.54382813 23.59992188 35.50390625 23.68359375 C33.06359221 23.73211468 33.06359221 23.73211468 32 25 C35.96 27.31 39.92 29.62 44 32 C44 29.69 44 27.38 44 25 C44.33 25 44.66 25 45 25 C45 30.61 45 36.22 45 42 C41.04549546 40.41819818 37.72182352 38.79986599 34.0625 36.6875 C33.47621826 36.34992676 32.88993652 36.01235352 32.28588867 35.66455078 C25.51611053 31.75075939 18.79550357 27.75141987 12.08032227 23.74487305 C6.54101592 20.45230654 0.94865649 17.33696888 -4.77856445 14.38134766 C-7 13 -7 13 -9 10 C-7.8758824 8.70756532 -6.75067408 7.41607925 -5.625 6.125 C-4.99851562 5.40570313 -4.37203125 4.68640625 -3.7265625 3.9453125 C-2.52573166 2.5923402 -1.2791655 1.2791655 0 0 Z " fill="#B1A917" transform="translate(48,41)"/>
<path d="M0 0 C2.79996253 2.10665302 4.21912867 5.00927949 5.85302734 8.03466797 C6.19140625 8.63472656 6.52978516 9.23478516 6.87841797 9.85302734 C10.30952003 16.03166568 12.94143381 22.17030189 14.47802734 29.09716797 C14.72939453 30.20576172 14.98076172 31.31435547 15.23974609 32.45654297 C15.79052734 35.34716797 15.79052734 35.34716797 15.79052734 38.34716797 C10.40823151 36.85772761 6.20270431 34.30905155 1.54052734 31.34716797 C-7.5343941 25.68268194 -16.81778789 20.46485908 -26.20947266 15.34716797 C-24.43642473 10.0280242 -18.59599128 8.18546896 -13.89697266 5.53466797 C-12.30852539 4.59977539 -12.30852539 4.59977539 -10.68798828 3.64599609 C-9.66769531 3.0665625 -8.64740234 2.48712891 -7.59619141 1.89013672 C-6.6599292 1.35412842 -5.72366699 0.81812012 -4.7590332 0.26586914 C-2.20947266 -0.65283203 -2.20947266 -0.65283203 0 0 Z " fill="#B4A91F" transform="translate(164.20947265625,50.65283203125)"/>
<path d="M0 0 C2.475 0.99 2.475 0.99 5 2 C4.67 2.66 4.34 3.32 4 4 C5.09054688 4.62044189 5.09054688 4.62044189 6.203125 5.25341797 C8.89018407 6.78685024 11.57330486 8.32689308 14.25390625 9.87158203 C15.98921287 10.86880102 17.72897343 11.85825629 19.46875 12.84765625 C20.5515625 13.47285156 21.634375 14.09804687 22.75 14.7421875 C24.25820312 15.60626221 24.25820312 15.60626221 25.796875 16.48779297 C26.52390625 16.98682129 27.2509375 17.48584961 28 18 C28 18.66 28 19.32 28 20 C27.01 20.495 27.01 20.495 26 21 C26 22.32 26 23.64 26 25 C25.68848712 27.33634657 25.35840222 29.67038557 25 32 C23.02 32.66 21.04 33.32 19 34 C19.33 31.69 19.66 29.38 20 27 C17.87816301 25.69824095 17.87816301 25.69824095 14.75 26.5 C11 27 11 27 8.3125 26.23046875 C3.34582875 25.88491026 0.35215339 28.21259317 -3.75 30.8125 C-4.51699219 31.27720703 -5.28398438 31.74191406 -6.07421875 32.22070312 C-10.28150393 34.79200166 -10.28150393 34.79200166 -14 38 C-13.4633142 25.8709009 -8.96127054 8.96127054 0 0 Z " fill="#775228" transform="translate(38,52)"/>
<path d="M0 0 C0.33 0 0.66 0 1 0 C1 8.58 1 17.16 1 26 C2.98 26.66 4.96 27.32 7 28 C8.78531667 28.92944507 10.54352829 29.91250496 12.2734375 30.94140625 C13.74744019 31.81128174 13.74744019 31.81128174 15.2512207 32.69873047 C16.28206787 33.31377441 17.31291504 33.92881836 18.375 34.5625 C20.52168164 35.82759323 22.66881858 37.09191418 24.81640625 38.35546875 C26.39059326 39.28431885 26.39059326 39.28431885 27.99658203 40.23193359 C32.08683265 42.63980182 36.18956624 45.02357069 40.3125 47.375 C40.95687012 47.74955322 41.60124023 48.12410645 42.26513672 48.51000977 C46.66541165 51.00734928 49.17452117 51.33116657 54 50 C54.495 52.475 54.495 52.475 55 55 C55.99 54.67 56.98 54.34 58 54 C58.33 54.99 58.66 55.98 59 57 C56.05955267 57.86970977 54.56340172 58.25468845 51.71875 56.96875 C50.23958333 55.98958333 48.76041667 55.01041667 47.28125 54.03125 C44.40286189 52.73006085 42.97244017 53.07700522 40 54 C39.360625 54.37125 38.72125 54.7425 38.0625 55.125 C35.04904021 56.40343748 33.16229127 55.75925361 30 55 C26.9921875 53.3984375 26.9921875 53.3984375 23.875 51.375 C22.73357858 50.65154533 21.59163928 49.92890717 20.44921875 49.20703125 C19.29933293 48.47158277 18.14959125 47.73590885 17 47 C7.68580129 40.96801103 7.68580129 40.96801103 -3 39 C-3 33.72 -3 28.44 -3 23 C-2.01 23.33 -1.02 23.66 0 24 C0 16.08 0 8.16 0 0 Z " fill="#593F18" transform="translate(102,64)"/>
<path d="M0 0 C1.11375 1.175625 1.11375 1.175625 2.25 2.375 C4.54433318 4.56504531 6.12158858 5.82731386 9 7 C9 8.32 9 9.64 9 11 C6.69 12.32 4.38 13.64 2 15 C2.2475 16.7325 2.2475 16.7325 2.5 18.5 C3.03012608 22.7036758 3.07177261 26.76541582 3 31 C3 31.99 3 32.98 3 34 C1.68 33.67 0.36 33.34 -1 33 C-0.67 33.66 -0.34 34.32 0 35 C-3.52850096 33.68386288 -6.61946934 32.11613059 -9.8125 30.125 C-14.11184811 27.4951139 -18.4603069 25.18577816 -23 23 C-23 21.68 -23 20.36 -23 19 C-22.34 19 -21.68 19 -21 19 C-21.165 17.948125 -21.33 16.89625 -21.5 15.8125 C-21 12 -21 12 -19.53515625 10.4921875 C-15.17350996 7.6074551 -10.92710007 6.25963312 -5.78515625 5.45703125 C-5.19605469 5.30621094 -4.60695313 5.15539062 -4 5 C-3.67 4.34 -3.34 3.68 -3 3 C-2.01 3 -1.02 3 0 3 C0 2.01 0 1.02 0 0 Z " fill="#CD9007" transform="translate(67,93)"/>
<path d="M0 0 C0.87914062 0.49048828 1.75828125 0.98097656 2.6640625 1.48632812 C3.49421875 1.96392578 4.324375 2.44152344 5.1796875 2.93359375 C5.93749512 3.36599365 6.69530273 3.79839355 7.47607422 4.24389648 C8.02021973 4.67903564 8.56436523 5.1141748 9.125 5.5625 C9.125 6.5525 9.125 7.5425 9.125 8.5625 C6.155 8.8925 3.185 9.2225 0.125 9.5625 C0.125 14.5125 0.125 19.4625 0.125 24.5625 C-0.205 24.5625 -0.535 24.5625 -0.875 24.5625 C-0.875 18.9525 -0.875 13.3425 -0.875 7.5625 C-1.535 7.5625 -2.195 7.5625 -2.875 7.5625 C-2.875 17.1325 -2.875 26.7025 -2.875 36.5625 C-4.195 36.5625 -5.515 36.5625 -6.875 36.5625 C-6.875 34.22916667 -6.875 31.89583333 -6.875 29.5625 C-10.31015002 28.93792727 -13.36564814 28.5625 -16.875 28.5625 C-16.875 27.9025 -16.875 27.2425 -16.875 26.5625 C-13.875 24.5625 -13.875 24.5625 -12 24.8125 C-9.59567201 25.66108635 -7.23994762 26.61027687 -4.875 27.5625 C-4.24736689 23.40761985 -4.02842005 19.69706625 -4.875 15.5625 C-7.76604066 12.32027493 -11.25922765 10.64773148 -15.125 8.75 C-16.12740723 8.21084961 -17.12981445 7.67169922 -18.16259766 7.11621094 C-20.1479491 6.05011674 -22.14282034 5.00153344 -24.14746094 3.97216797 C-27.58682431 2.19460942 -30.9145884 0.27757985 -34.25 -1.6875 C-35.16523438 -2.20828125 -36.08046875 -2.7290625 -37.0234375 -3.265625 C-37.63445312 -3.65234375 -38.24546875 -4.0390625 -38.875 -4.4375 C-38.875 -4.7675 -38.875 -5.0975 -38.875 -5.4375 C-35.16858621 -5.83336546 -31.45985771 -6.20045365 -27.75 -6.5625 C-26.17992187 -6.73072266 -26.17992187 -6.73072266 -24.578125 -6.90234375 C-14.45551989 -7.86335056 -8.63176857 -4.98536634 0 0 Z " fill="#AB9E1C" transform="translate(170.875,101.4375)"/>
<path d="M0 0 C2.37625177 -0.10883596 4.74743976 -0.18766696 7.125 -0.25 C7.79015625 -0.28351562 8.4553125 -0.31703125 9.140625 -0.3515625 C14.25738222 -0.45189107 17.26937957 0.4794754 21 4 C21.83984375 7.3125 21.83984375 7.3125 21.9375 11 C22.01291016 12.8253125 22.01291016 12.8253125 22.08984375 14.6875 C22 18 22 18 21 22 C10.11 22.495 10.11 22.495 -1 23 C-1 26.3 -1 29.6 -1 33 C-1.99 32.34 -2.98 31.68 -4 31 C-4.34057617 28.66162109 -4.34057617 28.66162109 -4.29296875 25.7734375 C-4.2784668 24.2265625 -4.2784668 24.2265625 -4.26367188 22.6484375 C-4.23853516 21.56820312 -4.21339844 20.48796875 -4.1875 19.375 C-4.17396484 18.28703125 -4.16042969 17.1990625 -4.14648438 16.078125 C-4.11104754 13.38492591 -4.06164331 10.69270626 -4 8 C-4.66 8 -5.32 8 -6 8 C-6 6.35 -6 4.7 -6 3 C-3.03 3.495 -3.03 3.495 0 4 C0 2.68 0 1.36 0 0 Z " fill="#A07D4F" transform="translate(105,57)"/>
<path d="M0 0 C22.91091615 -0.40391429 22.91091615 -0.40391429 31 2 C32 3 32 3 32.11352539 5.13305664 C32.10828857 6.04949951 32.10305176 6.96594238 32.09765625 7.91015625 C32.09443359 8.89951172 32.09121094 9.88886719 32.08789062 10.90820312 C32.07532227 12.46958008 32.07532227 12.46958008 32.0625 14.0625 C32.05798828 15.10728516 32.05347656 16.15207031 32.04882812 17.22851562 C32.03699913 19.8190666 32.02051689 22.40950559 32 25 C27.54369252 24.03747205 24.00503489 21.97104518 20.0625 19.75 C19.00772461 19.17572266 19.00772461 19.17572266 17.93164062 18.58984375 C13.62652536 16.1770425 10.42918933 13.6006488 7 10 C4.82636986 8.41903751 4.82636986 8.41903751 2.6875 7.1875 C1.99011719 6.76855469 1.29273437 6.34960938 0.57421875 5.91796875 C0.05472656 5.61503906 -0.46476562 5.31210937 -1 5 C-0.67 3.35 -0.34 1.7 0 0 Z " fill="#674B29" transform="translate(91,20)"/>
<path d="M0 0 C0.66 0 1.32 0 2 0 C2.495 0.99 2.495 0.99 3 2 C3.66 1.67 4.32 1.34 5 1 C6.99960012 0.960008 9.00047242 0.95653201 11 1 C10.05687704 13.26059848 5.02544035 23.50625556 -1 34 C-3.31 32.68 -5.62 31.36 -8 30 C-8 29.34 -8 28.68 -8 28 C-8.66 28 -9.32 28 -10 28 C-10.33 28.99 -10.66 29.98 -11 31 C-12.99609375 31.73046875 -12.99609375 31.73046875 -15.4375 32.1875 C-16.24058594 32.34605469 -17.04367188 32.50460938 -17.87109375 32.66796875 C-20 33 -20 33 -22 33 C-22 34.98 -22 36.96 -22 39 C-22.33 39 -22.66 39 -23 39 C-23 36.36 -23 33.72 -23 31 C-22.01 31 -21.02 31 -20 31 C-20 30.34 -20 29.68 -20 29 C-20.721875 28.731875 -21.44375 28.46375 -22.1875 28.1875 C-25 27 -25 27 -27.4375 25.3125 C-30.70643 23.63817 -32.51170995 24.10764673 -36 25 C-36 26.98 -36 28.96 -36 31 C-36.33 31 -36.66 31 -37 31 C-37 28.36 -37 25.72 -37 23 C-36.01 23 -35.02 23 -34 23 C-34 19.7 -34 16.4 -34 13 C-31.72840311 14.29033905 -29.45770375 15.58221402 -27.1875 16.875 C-26.54490234 17.23980469 -25.90230469 17.60460937 -25.24023438 17.98046875 C-22.43231202 19.58083901 -19.69035702 21.20642866 -17 23 C-13.96547627 22.62068453 -12.62438979 21.74959319 -10 20 C-6.8125 20.375 -6.8125 20.375 -4 21 C-3.40267181 23.76264289 -3 26.16032769 -3 29 C-2.34 29 -1.68 29 -1 29 C-0.67 19.43 -0.34 9.86 0 0 Z " fill="#B6A01E" transform="translate(168,109)"/>
<path d="M0 0 C1.25425781 0.02707031 2.50851563 0.05414063 3.80078125 0.08203125 C4.75339844 0.11683594 5.70601562 0.15164062 6.6875 0.1875 C5.6975 1.6725 5.6975 1.6725 4.6875 3.1875 C4.0275 3.1875 3.3675 3.1875 2.6875 3.1875 C2.39187633 8.50920494 2.39187633 8.50920494 4.6875 13.1875 C6.59730666 13.91613276 8.51026651 14.63805585 10.44140625 15.30810547 C14.30100037 16.81922047 17.70081076 19.03207824 21.1875 21.25 C21.91453125 21.69666016 22.6415625 22.14332031 23.390625 22.60351562 C25.19534711 23.73825161 26.94722052 24.95621003 28.6875 26.1875 C28.6875 26.8475 28.6875 27.5075 28.6875 28.1875 C30.3375 28.5175 31.9875 28.8475 33.6875 29.1875 C33.0275 31.4975 32.3675 33.8075 31.6875 36.1875 C31.0275 36.1875 30.3675 36.1875 29.6875 36.1875 C30.0175 34.2075 30.3475 32.2275 30.6875 30.1875 C27.70898438 30.28515625 27.70898438 30.28515625 24.73046875 30.3828125 C22.6875 30.1875 22.6875 30.1875 19.6875 28.1875 C19 26.0625 19 26.0625 18.6875 24.1875 C18.07261719 24.13851562 17.45773438 24.08953125 16.82421875 24.0390625 C16.01597656 23.96429688 15.20773438 23.88953125 14.375 23.8125 C13.57449219 23.74289063 12.77398437 23.67328125 11.94921875 23.6015625 C9.6875 23.1875 9.6875 23.1875 6.6875 21.1875 C4.76984218 21.24357187 2.85299363 21.3305435 0.9375 21.4375 C-2.28125 21.2578125 -2.28125 21.2578125 -5.3125 20.1875 C-9.00238483 15.35375087 -12.3125 9.38339934 -12.3125 3.1875 C-8.33227445 -0.07735041 -5.02284121 -0.14082732 0 0 Z " fill="#543D19" transform="translate(40.3125,118.8125)"/>
<path d="M0 0 C5.23799388 2.00063472 9.95486211 4.65911949 14.8125 7.4375 C15.69615234 7.92798828 16.57980469 8.41847656 17.49023438 8.92382812 C18.32490234 9.40142578 19.15957031 9.87902344 20.01953125 10.37109375 C20.78370361 10.80349365 21.54787598 11.23589355 22.33520508 11.68139648 C22.8845874 12.11653564 23.43396973 12.5516748 24 13 C24 13.99 24 14.98 24 16 C12.615 16.99 12.615 16.99 1 18 C1 17.34 1 16.68 1 16 C0.4337793 15.88591797 -0.13244141 15.77183594 -0.71582031 15.65429688 C-3.2677304 14.92330938 -5.25114113 13.86191653 -7.546875 12.53125 C-8.81337891 11.79841797 -8.81337891 11.79841797 -10.10546875 11.05078125 C-10.97816406 10.53902344 -11.85085937 10.02726562 -12.75 9.5 C-13.63816406 8.98824219 -14.52632813 8.47648437 -15.44140625 7.94921875 C-20.29382542 5.12423124 -20.29382542 5.12423124 -22 4 C-22 3.67 -22 3.34 -22 3 C-14.64206267 2.08839714 -7.41017023 1.88540974 0 2 C0 1.34 0 0.68 0 0 Z " fill="#AA9D1C" transform="translate(128,78)"/>
<path d="M0 0 C8.6481694 2.88272313 18.4027701 6.44103075 25 13 C27.15202645 17.88867273 26.1705061 22.9278069 25 28 C20.05834547 27.44668733 16.51681243 25.18127486 12.375 22.625 C11.37339844 22.02558594 11.37339844 22.02558594 10.3515625 21.4140625 C7.18644496 19.48967104 4.61355798 17.63343294 2 15 C1.34 14.67 0.68 14.34 0 14 C0 9.38 0 4.76 0 0 Z " fill="#A68054" transform="translate(154,78)"/>
<path d="M0 0 C3.67998739 1.93322004 7.34791148 3.88241505 10.99609375 5.875 C13.38880631 7.17382001 15.71058954 8.30318487 18.22265625 9.375 C21.07610954 10.68882022 22.95101222 11.6071591 25 14 C25.82966226 18.77457249 25.59093446 23.2068649 25 28 C18.90103229 26.74753342 14.26896524 24.77870004 9 21.5 C8.32066406 21.09652344 7.64132813 20.69304687 6.94140625 20.27734375 C5.25381631 19.24849113 3.6207853 18.13117308 2 17 C2 16.34 2 15.68 2 15 C1.34 15 0.68 15 0 15 C0 10.05 0 5.1 0 0 Z " fill="#A47E53" transform="translate(128,62)"/>
<path d="M0 0 C1.46770162 2.48562371 2.75788498 4.9049655 4 7.5 C4.35376709 8.22598389 4.70753418 8.95196777 5.07202148 9.69995117 C11.57888165 23.26335506 11.57888165 23.26335506 10 28 C9.60167969 27.55398437 9.20335937 27.10796875 8.79296875 26.6484375 C6.75452885 24.77431628 4.81763417 23.7969466 2.3125 22.625 C-1.62532004 20.71886682 -5.29837445 18.63639989 -8.97265625 16.26953125 C-12.55914721 14.02365541 -16.2838109 12.02153805 -20 10 C-17.22194921 6.77255864 -13.64575135 4.84182455 -10 2.75 C-9.3709375 2.37359375 -8.741875 1.9971875 -8.09375 1.609375 C-3.3584045 -1.11946817 -3.3584045 -1.11946817 0 0 Z " fill="#B7B01A" transform="translate(168,55)"/>
<path d="M0 0 C0.33 0.99 0.66 1.98 1 3 C0.01 3 -0.98 3 -2 3 C-1.67 3.66 -1.34 4.32 -1 5 C-0.21625 4.54625 0.5675 4.0925 1.375 3.625 C6.44765053 2.75040508 8.80058168 4.75611941 13.0234375 7.421875 C13.67570312 7.94265625 14.32796875 8.4634375 15 9 C15 9.66 15 10.32 15 11 C14.01 11 13.02 11 12 11 C12 14.63 12 18.26 12 22 C4.06636784 22.68848876 -0.38180628 20.77128004 -7.0625 16.625 C-7.92810547 16.11710937 -8.79371094 15.60921875 -9.68554688 15.0859375 C-14.27126031 12.33523331 -14.27126031 12.33523331 -16 11 C-16 10.34 -16 9.68 -16 9 C-10.72 6.03 -5.44 3.06 0 0 Z " fill="#5B4119" transform="translate(133,129)"/>
<path d="M0 0 C5.47932789 1.54545146 10.11429181 4.15543212 15 7 C15 7.66 15 8.32 15 9 C15.87398437 9.17015625 15.87398437 9.17015625 16.765625 9.34375 C19.18182702 10.05340374 20.68338809 11.07817101 22.75 12.5 C29.2759357 16.30588183 36.64537671 15.90073515 44 16 C44 18.31 44 20.62 44 23 C43.25234375 23.06058594 42.5046875 23.12117188 41.734375 23.18359375 C40.74953125 23.26738281 39.7646875 23.35117188 38.75 23.4375 C37.28820312 23.55931641 37.28820312 23.55931641 35.796875 23.68359375 C33.07014294 23.92211357 33.07014294 23.92211357 30.765625 24.59765625 C29 25 29 25 27 24 C27 23.34 27 22.68 27 22 C26.29786377 21.73719238 25.59572754 21.47438477 24.87231445 21.20361328 C21.78666387 19.91060373 18.95676792 18.38586908 16.04296875 16.7421875 C14.93115234 16.11699219 13.81933594 15.49179687 12.67382812 14.84765625 C11.51168099 14.1901709 10.34957209 13.53261797 9.1875 12.875 C8.00601811 12.20935359 6.824379 11.54398616 5.64257812 10.87890625 C2.76016095 9.25534066 -0.12062331 7.62894985 -3 6 C-3 3 -3 3 -1.5 1.3125 C-0.7575 0.6628125 -0.7575 0.6628125 0 0 Z " fill="#A4971D" transform="translate(48,41)"/>
<path d="M0 0 C6.07746623 1.51936656 11.12996859 4.81174931 16.5625 7.875 C17.71169922 8.51308594 18.86089844 9.15117188 20.04492188 9.80859375 C21.14513672 10.42605469 22.24535156 11.04351562 23.37890625 11.6796875 C24.3851001 12.24413574 25.39129395 12.80858398 26.42797852 13.39013672 C29 15 29 15 32 18 C22.43 18 12.86 18 3 18 C2.67 16.68 2.34 15.36 2 14 C1.34 14 0.68 14 0 14 C0 9.38 0 4.76 0 0 Z " fill="#7B5A35" transform="translate(102,39)"/>
<path d="M0 0 C2.97 0.495 2.97 0.495 6 1 C6 1.66 6 2.32 6 3 C7.3303125 3.37125 7.3303125 3.37125 8.6875 3.75 C12 5 12 5 14.359375 6.90234375 C17.01226766 9.00974517 19.50616529 10.36957735 22.5625 11.8125 C27.69493828 14.31643227 32.62758187 16.9939991 37.48828125 19.9921875 C40.23419987 21.63825573 43.05890166 22.95092559 45.98046875 24.2578125 C59.02916777 30.41372531 59.02916777 30.41372531 60.84716797 35.25683594 C61.65042088 40.61825575 60.99584126 45.70631753 60 51 C59.34 50.67 58.68 50.34 58 50 C58.33 45.05 58.66 40.1 59 35 C57.35 34.34 55.7 33.68 54 33 C52.36526715 32.15880583 50.74431661 31.29039502 49.13671875 30.3984375 C48.25048828 29.90859375 47.36425781 29.41875 46.45117188 28.9140625 C45.53916016 28.40617187 44.62714844 27.89828125 43.6875 27.375 C42.75615234 26.859375 41.82480469 26.34375 40.86523438 25.8125 C38.57537808 24.5442719 36.28749357 23.27248479 34 22 C34 26.62 34 31.24 34 36 C35.65 36.66 37.3 37.32 39 38 C32.130001 40.00374971 25.09332123 40.14240743 18 40.0625 C17.22527344 40.05798828 16.45054687 40.05347656 15.65234375 40.04882812 C13.76819476 40.03719758 11.88408635 40.01926906 10 40 C10 39.67 10 39.34 10 39 C17.26 38.34 24.52 37.68 32 37 C31.01 35.68 30.02 34.36 29 33 C30.32 33.33 31.64 33.66 33 34 C33 29.38 33 24.76 33 20 C30.525 19.01 30.525 19.01 28 18 C26.43535065 17.16289855 24.88711341 16.29450172 23.35546875 15.3984375 C22.51435547 14.90859375 21.67324219 14.41875 20.80664062 13.9140625 C19.94232422 13.40617187 19.07800781 12.89828125 18.1875 12.375 C17.30384766 11.859375 16.42019531 11.34375 15.50976562 10.8125 C13.33807037 9.54469953 11.16879433 8.27275663 9 7 C8.67 11.62 8.34 16.24 8 21 C8.66 21.33 9.32 21.66 10 22 C9.34 22 8.68 22 8 22 C8 22.66 8 23.32 8 24 C-0.02502344 24.79681084 -7.93649887 25.12867289 -16 25 C-16 24.67 -16 24.34 -16 24 C-5.11 23.01 -5.11 23.01 6 22 C5.34 21.01 4.68 20.02 4 19 C4.99 19 5.98 19 7 19 C6.67 18.34 6.34 17.68 6 17 C5.84198015 13.94933902 5.74608726 10.90149091 5.671875 7.84765625 C5.28326796 4.77495386 5.28326796 4.77495386 2.453125 3.24609375 C1.64359375 2.83488281 0.8340625 2.42367187 0 2 C0 1.34 0 0.68 0 0 Z " fill="#977345" transform="translate(120,56)"/>
<path d="M0 0 C0.33 1.32 0.66 2.64 1 4 C2.32 4.33 3.64 4.66 5 5 C5 5.99 5 6.98 5 8 C4.34 8 3.68 8 3 8 C3 8.66 3 9.32 3 10 C2.01 10.495 2.01 10.495 1 11 C0.86432617 11.63196289 0.72865234 12.26392578 0.58886719 12.91503906 C-0.16713642 15.59176824 -1.03344669 16.01626391 -3.421875 17.359375 C-4.11796875 17.75253906 -4.8140625 18.14570312 -5.53125 18.55078125 C-6.2634375 18.94652344 -6.995625 19.34226562 -7.75 19.75 C-8.46671875 20.16121094 -9.1834375 20.57242188 -9.921875 20.99609375 C-13.71505804 23.09489539 -16.535139 24.59765856 -21 24 C-21.66 22.35 -22.32 20.7 -23 19 C-20.525 19.99 -20.525 19.99 -18 21 C-18.33 20.34 -18.66 19.68 -19 19 C-19.76041038 13.84610742 -19.76041038 13.84610742 -19 11 C-16.66246488 8.57168682 -14.16073618 7.14186745 -11 6 C-8.25 6.3125 -8.25 6.3125 -6 7 C-3.75 6.5 -3.75 6.5 -2 5 C-0.71745356 2.46229997 -0.71745356 2.46229997 0 0 Z " fill="#D9A518" transform="translate(88,105)"/>
<path d="M0 0 C7.66026872 3.77718319 15.08267582 8.0206375 22.5 12.25 C23.09925293 12.59111816 23.69850586 12.93223633 24.31591797 13.28369141 C26.93805002 14.78471832 29.48457664 16.32305109 32 18 C32 16.68 32 15.36 32 14 C32.99 14.33 33.98 14.66 35 15 C35.495 19.95 35.495 19.95 36 25 C37.98 25.66 39.96 26.32 42 27 C38.94736336 27.98120464 37.05263664 27.98120464 34 27 C34 24.69 34 22.38 34 20 C32.35 20.33 30.7 20.66 29 21 C29 21.66 29 22.32 29 23 C23.57723674 21.48747015 19.19606662 18.90916736 14.4375 16 C8.94140877 12.59493822 8.94140877 12.59493822 3.09765625 9.875 C1 9 1 9 -1 6 C-1.1875 3.375 -1.1875 3.375 -1 1 C-0.67 0.67 -0.34 0.34 0 0 Z " fill="#C48807" transform="translate(43,123)"/>
<path d="M0 0 C2.8413502 1.40400868 5.57590581 2.96554199 8.3125 4.5625 C9.05306641 4.98724609 9.79363281 5.41199219 10.55664062 5.84960938 C12.37468118 6.89351653 14.18783748 7.94592192 16 9 C15.67 9.66 15.34 10.32 15 11 C13.906875 10.814375 12.81375 10.62875 11.6875 10.4375 C8.06375867 9.7421932 8.06375867 9.7421932 5 11 C5.99 12.32 6.98 13.64 8 15 C5.15777409 15.86637057 2.95552149 16.36132126 0.11474609 15.28710938 C-1.92086488 14.18633755 -3.86515053 13.00010337 -5.8125 11.75 C-6.49248047 11.34136719 -7.17246094 10.93273437 -7.87304688 10.51171875 C-12.86037325 7.41888026 -12.86037325 7.41888026 -14 4 C-12.61518672 3.12808053 -11.21654754 2.27809616 -9.8125 1.4375 C-8.64654297 0.72400391 -8.64654297 0.72400391 -7.45703125 -0.00390625 C-4.30904126 -1.28011841 -3.21322297 -1.10800792 0 0 Z " fill="#ECC229" transform="translate(149,117)"/>
<path d="M0 0 C0.33 0 0.66 0 1 0 C1.05398987 2.27057377 1.09278742 4.54151288 1.125 6.8125 C1.14820312 8.07707031 1.17140625 9.34164062 1.1953125 10.64453125 C1 14 1 14 -1 17 C-0.67 17.33 -0.34 17.66 0 18 C0.042721 19.66611905 0.04063832 21.33382885 0 23 C0 23.66 0 24.32 0 25 C0 40.33333333 0 55.66666667 0 71 C-1.485 71.495 -1.485 71.495 -3 72 C-3 56.49 -3 40.98 -3 25 C-3.66 25 -4.32 25 -5 25 C-5 22.36 -5 19.72 -5 17 C-4.34 17 -3.68 17 -3 17 C-3 12.71 -3 8.42 -3 4 C-2.01 3.67 -1.02 3.34 0 3 C0 2.01 0 1.02 0 0 Z " fill="#86691E" transform="translate(98,33)"/>
<path d="M0 0 C0.66 0 1.32 0 2 0 C2 0.66 2 1.32 2 2 C2.928125 2.12375 2.928125 2.12375 3.875 2.25 C6 3 6 3 7.1328125 5.046875 C7.41898438 5.69140625 7.70515625 6.3359375 8 7 C0.8775957 16.42918773 0.8775957 16.42918773 -3.53125 17.76953125 C-5.91535028 17.81210447 -7.74607352 17.78625342 -10 17 C-12.13586678 13.79619983 -12.23132175 12.98060033 -12.125 9.3125 C-12.10695312 8.50425781 -12.08890625 7.69601563 -12.0703125 6.86328125 C-12.04710937 6.24839844 -12.02390625 5.63351563 -12 5 C-9.195261 3.76261515 -6.79629321 2.96866049 -3.75 2.5 C-2.38875 2.2525 -2.38875 2.2525 -1 2 C-0.67 1.34 -0.34 0.68 0 0 Z " fill="#514422" transform="translate(158,137)"/>
<path d="M0 0 C-0.185625 0.94875 -0.37125 1.8975 -0.5625 2.875 C-1.28686632 5.89868793 -1.28686632 5.89868793 0 8 C-0.27942455 9.67654729 -0.60828247 11.34608154 -1 13 C-1.99 13.33 -2.98 13.66 -4 14 C-1.03 14 1.94 14 5 14 C5.33 14.99 5.66 15.98 6 17 C4 20 4 20 0.625 20.9375 C-3 21 -3 21 -5.0625 19.3125 C-5.701875 18.549375 -6.34125 17.78625 -7 17 C-8.0725 16.360625 -9.145 15.72125 -10.25 15.0625 C-11.1575 14.381875 -12.065 13.70125 -13 13 C-13.375 10.25 -13.375 10.25 -13 8 C-12.34 8 -11.68 8 -11 8 C-10.67 6.68 -10.34 5.36 -10 4 C-9.67 4.33 -9.34 4.66 -9 5 C-8.67 3.68 -8.34 2.36 -8 1 C-8.99 1 -9.98 1 -11 1 C-10.67 0.34 -10.34 -0.32 -10 -1 C-3.625 -2.41666667 -3.625 -2.41666667 0 0 Z " fill="#6C4C20" transform="translate(59,79)"/>
<path d="M0 0 C3.53687585 1.41475034 6.26390179 2.64529175 9.42578125 4.6015625 C10.22177734 5.09140625 11.01777344 5.58125 11.83789062 6.0859375 C12.65451172 6.59382813 13.47113281 7.10171875 14.3125 7.625 C15.14845703 8.140625 15.98441406 8.65625 16.84570312 9.1875 C18.89931199 10.45487004 20.95063341 11.72578573 23 13 C22.67 13.66 22.34 14.32 22 15 C11.11 15.495 11.11 15.495 0 16 C0 10.72 0 5.44 0 0 Z " fill="#AA9D1C" transform="translate(104,64)"/>
<path d="M0 0 C0.94101563 0.54269531 1.88203125 1.08539063 2.8515625 1.64453125 C4.10932463 2.36727516 5.36713997 3.08992648 6.625 3.8125 C7.24246094 4.16892578 7.85992187 4.52535156 8.49609375 4.89257812 C12.27265506 7.05913172 16.08447772 9.0904299 20 11 C20 13.64 20 16.28 20 19 C16.04 19.495 16.04 19.495 12 20 C12 21.98 12 23.96 12 26 C11.67 26 11.34 26 11 26 C11 23.36 11 20.72 11 18 C11.99 18 12.98 18 14 18 C14 17.34 14 16.68 14 16 C13.278125 15.731875 12.55625 15.46375 11.8125 15.1875 C9 14 9 14 6.5625 12.3125 C3.29357 10.63817 1.48829005 11.10764673 -2 12 C-2 13.98 -2 15.96 -2 18 C-2.33 18 -2.66 18 -3 18 C-3 15.36 -3 12.72 -3 10 C-2.01 10 -1.02 10 0 10 C0 6.7 0 3.4 0 0 Z " fill="#D0960D" transform="translate(134,122)"/>
<path d="M0 0 C4.47921409 0.54045362 7.19643165 2.23192996 10.8125 4.875 C12.27623047 5.92300781 12.27623047 5.92300781 13.76953125 6.9921875 C14.50558594 7.65476562 15.24164063 8.31734375 16 9 C16 9.99 16 10.98 16 12 C13.48046875 13.82421875 13.48046875 13.82421875 10.1875 15.6875 C9.10855469 16.31011719 8.02960938 16.93273437 6.91796875 17.57421875 C4 19 4 19 1 19 C-0.00926479 14.84373632 -0.10239579 10.95634906 -0.0625 6.6875 C-0.05347656 5.43324219 -0.04445312 4.17898437 -0.03515625 2.88671875 C-0.01775391 1.45779297 -0.01775391 1.45779297 0 0 Z " fill="#977049" transform="translate(137,29)"/>
<path d="M0 0 C0.99 0.33 1.98 0.66 3 1 C3.02578125 2.12019531 3.0515625 3.24039063 3.078125 4.39453125 C3.13440635 5.86722646 3.19175368 7.3398812 3.25 8.8125 C3.26417969 9.55048828 3.27835937 10.28847656 3.29296875 11.04882812 C3.36245091 13.49113504 3.36245091 13.49113504 4 17 C5.32334259 18.01318417 6.65665928 19.01348416 8 20 C8.45781902 22.68528464 8.69472304 24.99651714 8.75 27.6875 C8.77964844 28.38939453 8.80929688 29.09128906 8.83984375 29.81445312 C8.91037033 31.54235424 8.95747068 33.2711832 9 35 C6 37 6 37 3 37 C3 34.69 3 32.38 3 30 C2.34 30 1.68 30 1 30 C1 29.34 1 28.68 1 28 C0.01 27.67 -0.98 27.34 -2 27 C-1.01 26.67 -0.02 26.34 1 26 C1 25.34 1 24.68 1 24 C1.66 24 2.32 24 3 24 C2.67 23.01 2.34 22.02 2 21 C1.01 20.67 0.02 20.34 -1 20 C-2.12067256 12.88221482 -1.7958955 6.97579243 0 0 Z " fill="#B18213" transform="translate(90,89)"/>
<path d="M0 0 C3.69601582 0.58078497 6.43707508 1.59059581 9.67578125 3.44921875 C10.57546631 3.96121826 11.47515137 4.47321777 12.40209961 5.00073242 C13.8427478 5.83568237 13.8427478 5.83568237 15.3125 6.6875 C16.30838135 7.25895752 17.3042627 7.83041504 18.33032227 8.41918945 C20.45093585 9.63817431 22.56961583 10.86052807 24.68652344 12.0859375 C28.06758052 14.03903855 31.45878437 15.9735937 34.8515625 17.90625 C37.04731611 19.16589805 39.24264111 20.42629359 41.4375 21.6875 C42.49171143 22.28715576 43.54592285 22.88681152 44.63208008 23.50463867 C45.59782959 24.0638501 46.5635791 24.62306152 47.55859375 25.19921875 C48.41767334 25.69252686 49.27675293 26.18583496 50.16186523 26.6940918 C50.76844971 27.1250415 51.37503418 27.55599121 52 28 C52 28.66 52 29.32 52 30 C49.20532925 30.7991767 47.57837479 31.22594187 44.82763672 30.15136719 C44.11881348 29.70438477 43.40999023 29.25740234 42.6796875 28.796875 C41.89722656 28.31089844 41.11476562 27.82492188 40.30859375 27.32421875 C39.50550781 26.80472656 38.70242187 26.28523438 37.875 25.75 C37.06417969 25.24597656 36.25335938 24.74195312 35.41796875 24.22265625 C28.40660675 19.80723654 28.40660675 19.80723654 26 17 C26 16.34 26 15.68 26 15 C25.21238281 14.7834375 24.42476562 14.566875 23.61328125 14.34375 C18.82049966 12.56135339 14.59053801 10.07982696 10.1875 7.5 C9.31673828 7.00113281 8.44597656 6.50226562 7.54882812 5.98828125 C1.12721927 2.25443853 1.12721927 2.25443853 0 0 Z " fill="#5A4118" transform="translate(41,55)"/>
<path d="M0 0 C1.11375 1.175625 1.11375 1.175625 2.25 2.375 C4.54433318 4.56504531 6.12158858 5.82731386 9 7 C9 8.32 9 9.64 9 11 C5.53248932 13.13385273 3.03834982 13.53336696 -1 13 C-4.12699693 11.53118147 -7.06826154 9.82419282 -10 8 C-10.33 9.65 -10.66 11.3 -11 13 C-13.3125 13.6875 -13.3125 13.6875 -16 14 C-17.8125 12.5625 -17.8125 12.5625 -19 11 C-14.68877927 7.68367637 -11.22343261 6.3733608 -5.85546875 5.4921875 C-5.24316406 5.32976562 -4.63085938 5.16734375 -4 5 C-3.67 4.34 -3.34 3.68 -3 3 C-2.01 3 -1.02 3 0 3 C0 2.01 0 1.02 0 0 Z " fill="#E7B926" transform="translate(67,93)"/>
<path d="M0 0 C1.32 0 2.64 0 4 0 C4.02505615 0.63091553 4.0501123 1.26183105 4.07592773 1.91186523 C4.19154137 4.75396825 4.31442316 7.59571083 4.4375 10.4375 C4.47681641 11.43072266 4.51613281 12.42394531 4.55664062 13.44726562 C4.59853516 14.39150391 4.64042969 15.33574219 4.68359375 16.30859375 C4.72025146 17.18314209 4.75690918 18.05769043 4.79467773 18.95874023 C4.78181066 20.9927402 4.78181066 20.9927402 6 22 C6.04092937 24.33297433 6.04241723 26.66705225 6 29 C3.36 29 0.72 29 -2 29 C-2 26.36 -2 23.72 -2 21 C-1.34 21 -0.68 21 0 21 C0 14.07 0 7.14 0 0 Z " fill="#776F51" transform="translate(101,111)"/>
<path d="M0 0 C0.66 0 1.32 0 2 0 C2.00142502 0.59468582 2.00285004 1.18937164 2.00431824 1.80207825 C2.02398053 7.98286262 2.07817874 14.16265477 2.15258789 20.34301758 C2.17580785 22.65056239 2.19017293 24.95821378 2.19555664 27.26586914 C2.20481673 30.58026867 2.24574449 33.89298246 2.29296875 37.20703125 C2.2890361 38.2414888 2.28510345 39.27594635 2.28105164 40.3417511 C2.33519932 42.990185 2.4206165 45.4151581 3 48 C5.24245161 50.22860088 5.24245161 50.22860088 8 51 C8.763125 51.391875 9.52625 51.78375 10.3125 52.1875 C10.869375 52.455625 11.42625 52.72375 12 53 C10.35 53 8.7 53 7 53 C6.67 56.96 6.34 60.92 6 65 C5.67 65 5.34 65 5 65 C4.97421875 64.02417969 4.9484375 63.04835937 4.921875 62.04296875 C4.86515625 60.77066406 4.8084375 59.49835938 4.75 58.1875 C4.70359375 56.92292969 4.6571875 55.65835938 4.609375 54.35546875 C4.38734778 50.92565506 4.38734778 50.92565506 1.98828125 49.55078125 C0 48 0 48 -0.50390625 44.3125 C-0.54235315 42.87538151 -0.56122097 41.43763211 -0.5625 40 C-0.39480574 34.68014448 -0.39480574 34.68014448 -2.52734375 30 C-3.01332031 29.67 -3.49929687 29.34 -4 29 C-2.68 28.34 -1.36 27.68 0 27 C0 18.09 0 9.18 0 0 Z " fill="#D69B11" transform="translate(93,58)"/>
<path d="M0 0 C11.42857143 3.71428571 11.42857143 3.71428571 16 6 C16 4.68 16 3.36 16 2 C16.99 2.33 17.98 2.66 19 3 C19.33 6.3 19.66 9.6 20 13 C21.98 13.66 23.96 14.32 26 15 C22.94736336 15.98120464 21.05263664 15.98120464 18 15 C18 12.69 18 10.38 18 8 C16.35 8.33 14.7 8.66 13 9 C13 9.66 13 10.32 13 11 C8.16098317 9.70172719 3.47167326 7.71818261 0 4 C0 2.68 0 1.36 0 0 Z " fill="#C38907" transform="translate(59,135)"/>
<path d="M0 0 C2.0625 1.75 2.0625 1.75 4 4 C3.75 6.125 3.75 6.125 3 8 C3 8.66 3 9.32 3 10 C-2.01907969 14.08529742 -2.01907969 14.08529742 -5.875 13.75 C-6.57625 13.5025 -7.2775 13.255 -8 13 C-8.70466321 7.80310881 -8.70466321 7.80310881 -8 5 C-5.59591596 2.78043995 -2.95606811 1.37246019 0 0 Z " fill="#DCA51A" transform="translate(77,111)"/>
<path d="M0 0 C0.59732819 2.76264289 1 5.16032769 1 8 C2.32 8 3.64 8 5 8 C4.34 9.65 3.68 11.3 3 13 C-0.465 11.02 -0.465 11.02 -4 9 C-4 8.34 -4 7.68 -4 7 C-4.66 7 -5.32 7 -6 7 C-6.33 7.99 -6.66 8.98 -7 10 C-7.99 10.33 -8.98 10.66 -10 11 C-10.125 3.375 -10.125 3.375 -9 0 C-5.52176885 -1.15941038 -3.54104422 -0.70820884 0 0 Z " fill="#DAA61B" transform="translate(164,130)"/>
<path d="M0 0 C1.32 0 2.64 0 4 0 C4 6.27 4 12.54 4 19 C3.67 19 3.34 19 3 19 C3 13.39 3 7.78 3 2 C2.34 2 1.68 2 1 2 C1 11.57 1 21.14 1 31 C-0.32 31 -1.64 31 -3 31 C-3 28.66666667 -3 26.33333333 -3 24 C-6.43515002 23.37542727 -9.49064814 23 -13 23 C-13 22.34 -13 21.68 -13 21 C-10 19 -10 19 -8.125 19.25 C-5.7243713 20.09728072 -3.36368043 21.05452783 -1 22 C-0.67 14.74 -0.34 7.48 0 0 Z " fill="#493E1A" transform="translate(167,107)"/>
<path d="M0 0 C7.33049206 3.05153041 7.33049206 3.05153041 9.5 6.125 C10.24690355 10.41969539 10.15191204 14.65362772 10 19 C7.69 18.01 5.38 17.02 3 16 C3 12.33333333 3 8.66666667 3 5 C2.01 4.67 1.02 4.34 0 4 C0 2.68 0 1.36 0 0 Z " fill="#463A16" transform="translate(58,103)"/>
<path d="M0 0 C0.33 0 0.66 0 1 0 C1.02505615 0.71953857 1.0501123 1.43907715 1.07592773 2.18041992 C1.67236049 20.61150964 1.67236049 20.61150964 3 39 C0 40 0 40 -3 39 C-3 33.72 -3 28.44 -3 23 C-2.01 23.33 -1.02 23.66 0 24 C0 16.08 0 8.16 0 0 Z " fill="#6B5E3E" transform="translate(102,64)"/>
<path d="M0 0 C0.66 0 1.32 0 2 0 C2.1953125 6.0546875 2.1953125 6.0546875 2 8 C0 10 0 10 -2.4375 10.9375 C-4.97065221 11.9878314 -6.23145796 12.95221448 -8 15 C-7.01 15.33 -6.02 15.66 -5 16 C-7.31 16.33 -9.62 16.66 -12 17 C-11.67 14.69 -11.34 12.38 -11 10 C-10.34 10 -9.68 10 -9 10 C-9 8.35 -9 6.7 -9 5 C-8.071875 4.731875 -7.14375 4.46375 -6.1875 4.1875 C-3.1688359 3.06289965 -2.0844857 2.29293427 0 0 Z " fill="#93723A" transform="translate(132,157)"/>
<path d="M0 0 C2.8125 1.375 2.8125 1.375 5 3 C5 3.66 5 4.32 5 5 C3.68 5 2.36 5 1 5 C1 7.31 1 9.62 1 12 C-3.34361288 10.81537831 -6.28300842 9.69510854 -9 6 C-8.9375 3.875 -8.9375 3.875 -8 2 C-4.71662309 -0.18891794 -3.80441099 -0.45290607 0 0 Z " fill="#45391B" transform="translate(143,135)"/>
<path d="M0 0 C3.52448507 0.66701703 6.18300138 2.10357831 9.25 3.9375 C10.14203125 4.46214844 11.0340625 4.98679687 11.953125 5.52734375 C12.62859375 6.01332031 13.3040625 6.49929687 14 7 C14 7.66 14 8.32 14 9 C13.01 9 12.02 9 11 9 C9.21782569 10.0292459 9.21782569 10.0292459 8 12 C7.41907008 15.19245998 7.41907008 15.19245998 7.3125 18.6875 C7.24675781 19.86699219 7.18101563 21.04648437 7.11328125 22.26171875 C7.07589844 23.16535156 7.03851563 24.06898437 7 25 C6.34 25 5.68 25 5 25 C5.02618408 24.44014404 5.05236816 23.88028809 5.0793457 23.3034668 C5.18332331 20.76509706 5.2483205 18.22717447 5.3125 15.6875 C5.35439453 14.80642578 5.39628906 13.92535156 5.43945312 13.01757812 C5.48577882 10.58084657 5.48869976 8.38913457 5 6 C2.60531475 4.01984815 2.60531475 4.01984815 0 3 C0 2.01 0 1.02 0 0 Z " fill="#D19711" transform="translate(88,25)"/>
<path d="M0 0 C2 1 2 1 3.796875 2.3828125 C6.1869724 4.13724569 8.62946797 5.48986164 11.25 6.875 C15.36162417 9.08431272 19.35658927 11.38876851 23.28125 13.9140625 C24.77549697 14.8581549 26.32202416 15.71849139 27.875 16.5625 C30.26797421 18.18127667 30.82951057 19.42175977 32 22 C26.97381947 19.38082587 21.97653698 16.71234069 17 14 C16.21496094 13.57235352 15.42992187 13.14470703 14.62109375 12.70410156 C12.25756585 11.40416122 9.90868655 10.08094031 7.5625 8.75 C6.81105713 8.33830566 6.05961426 7.92661133 5.28540039 7.50244141 C3.19140625 6.296875 3.19140625 6.296875 0 4 C0 2.68 0 1.36 0 0 Z " fill="#A08241" transform="translate(147,63)"/>
<path d="M0 0 C5.875 2.875 5.875 2.875 7 4 C7.07226502 5.85287502 7.0838122 7.70833878 7.0625 9.5625 C7.05347656 10.57441406 7.04445313 11.58632813 7.03515625 12.62890625 C7.02355469 13.41136719 7.01195313 14.19382812 7 15 C1.125 13.125 1.125 13.125 0 12 C-0.07244053 9.98035801 -0.08377188 7.95832876 -0.0625 5.9375 C-0.05347656 4.83277344 -0.04445313 3.72804688 -0.03515625 2.58984375 C-0.02355469 1.73519531 -0.01195313 0.88054688 0 0 Z " fill="#634926" transform="translate(107,25)"/>
<path d="M0 0 C4.2129476 1.68517904 7.32315889 3.43476202 11 6 C7.82092005 9.49999654 4.23648511 10.98593331 0 13 C0 8.71 0 4.42 0 0 Z " fill="#755330" transform="translate(138,29)"/>
<path d="M0 0 C1.485 0.99 1.485 0.99 3 2 C3.34057617 3.97119141 3.34057617 3.97119141 3.29296875 6.3515625 C3.28330078 7.20234375 3.27363281 8.053125 3.26367188 8.9296875 C3.23853516 9.81914063 3.21339844 10.70859375 3.1875 11.625 C3.16719727 12.97078125 3.16719727 12.97078125 3.14648438 14.34375 C3.11106925 16.56309789 3.06168461 18.78125188 3 21 C3.66 21.33 4.32 21.66 5 22 C4.34 22 3.68 22 3 22 C3 24.31 3 26.62 3 29 C2.01 29.33 1.02 29.66 0 30 C0 20.1 0 10.2 0 0 Z " fill="#A17B51" transform="translate(135,27)"/>
<path d="M0 0 C0.05410687 1.77049689 0.09284119 3.54146849 0.125 5.3125 C0.14820312 6.29863281 0.17140625 7.28476563 0.1953125 8.30078125 C0 11 0 11 -2 14 C-4.4375 14.125 -4.4375 14.125 -7 14 C-7.99 14.33 -8.98 14.66 -10 15 C-9.67 14.01 -9.34 13.02 -9 12 C-7.68 12 -6.36 12 -5 12 C-4.67 10.02 -4.34 8.04 -4 6 C-5.32 5.34 -6.64 4.68 -8 4 C-7.67 3.34 -7.34 2.68 -7 2 C-6.34 2.33 -5.68 2.66 -5 3 C-5 2.34 -5 1.68 -5 1 C-3 0 -3 0 0 0 Z " fill="#5C431C" transform="translate(77,143)"/>
<path d="M0 0 C0.66 2.31 1.32 4.62 2 7 C-4.75 11 -4.75 11 -7 11 C-7.33 8.69 -7.66 6.38 -8 4 C-2.25 0 -2.25 0 0 0 Z " fill="#4F411F" transform="translate(76,104)"/>
<path d="M0 0 C2.05078125 0.03255208 4.1015625 0.06510417 6.15234375 0.09765625 C6.15234375 3.39765625 6.15234375 6.69765625 6.15234375 10.09765625 C0.64053273 7.73545153 0.64053273 7.73545153 -1.84765625 6.09765625 C-2.91015625 3.41015625 -2.91015625 3.41015625 -2.84765625 1.09765625 C-1.84765625 0.09765625 -1.84765625 0.09765625 0 0 Z " fill="#6A502C" transform="translate(92.84765625,19.90234375)"/>
<path d="M0 0 C4.84455959 2.20207254 4.84455959 2.20207254 7 4 C7.9375 7.75 7.9375 7.75 8 11 C4.625 11.1875 4.625 11.1875 1 11 C-1.78637633 6.8204355 -0.79562512 4.85331323 0 0 Z " fill="#43381B" transform="translate(147,143)"/>
<path d="M0 0 C0.66 0 1.32 0 2 0 C2 5.61 2 11.22 2 17 C3.65 17.66 5.3 18.32 7 19 C0.130001 21.00374971 -6.90667877 21.14240743 -14 21.0625 C-14.77472656 21.05798828 -15.54945313 21.05347656 -16.34765625 21.04882812 C-18.23180524 21.03719758 -20.11591365 21.01926906 -22 21 C-22 20.67 -22 20.34 -22 20 C-11.11 19.01 -11.11 19.01 0 18 C-0.99 16.68 -1.98 15.36 -3 14 C-1.68 14.33 -0.36 14.66 1 15 C0.67 10.05 0.34 5.1 0 0 Z " fill="#907039" transform="translate(152,75)"/>
<path d="M0 0 C1.32 0.33 2.64 0.66 4 1 C3.125 5.875 3.125 5.875 2 7 C1.76518307 9.18292774 1.58636677 11.37203174 1.4375 13.5625 C1.31181641 15.35880859 1.31181641 15.35880859 1.18359375 17.19140625 C1.12300781 18.11824219 1.06242187 19.04507813 1 20 C0.34 19.67 -0.32 19.34 -1 19 C-1.37890625 16.63671875 -1.37890625 16.63671875 -1.5625 13.6875 C-1.81046931 9.68992212 -1.81046931 9.68992212 -2.6171875 5.78515625 C-3 4 -3 4 -1.5625 1.75 C-1.046875 1.1725 -0.53125 0.595 0 0 Z " fill="#AF6B4F" transform="translate(56,142)"/>
<path d="M0 0 C1.32 0 2.64 0 4 0 C5.46876252 4.40628756 6.41393552 7.50111425 5 12 C4.67 12.66 4.34 13.32 4 14 C2.68 13.67 1.36 13.34 0 13 C0.33 12.34 0.66 11.68 1 11 C1.99 11 2.98 11 4 11 C3.65213292 9.02463255 3.65213292 9.02463255 3 7 C2.34 6.67 1.68 6.34 1 6 C1 7.32 1 8.64 1 10 C0.34 10 -0.32 10 -1 10 C-1.125 2.25 -1.125 2.25 0 0 Z " fill="#4D3E1C" transform="translate(116,119)"/>
<path d="M0 0 C0.33 0 0.66 0 1 0 C1 15.51 1 31.02 1 47 C0.67 47 0.34 47 0 47 C-0.03738281 45.95199219 -0.07476562 44.90398437 -0.11328125 43.82421875 C-0.17894515 42.44527695 -0.24539235 41.06637229 -0.3125 39.6875 C-0.33505859 38.99720703 -0.35761719 38.30691406 -0.38085938 37.59570312 C-0.5836997 33.50793266 -0.5836997 33.50793266 -2.54296875 30.01953125 C-3.26419922 29.51486328 -3.26419922 29.51486328 -4 29 C-2.68 28.34 -1.36 27.68 0 27 C0 18.09 0 9.18 0 0 Z " fill="#CF9107" transform="translate(93,58)"/>
<path d="M0 0 C0 1.32 0 2.64 0 4 C-0.66 4 -1.32 4 -2 4 C-2.33 5.32 -2.66 6.64 -3 8 C-6.99500618 6.6302836 -9.80009492 4.74277578 -13 2 C-8.46298506 0.54815522 -4.81938524 -0.23509196 0 0 Z " fill="#8A6A44" transform="translate(90,21)"/>
<path d="M0 0 C4.39383706 1.59623144 8.28995807 3.78024333 12.3125 6.125 C12.95767578 6.49753906 13.60285156 6.87007813 14.26757812 7.25390625 C15.84675945 8.16632213 17.42361864 9.08275509 19 10 C18.34 10.66 17.68 11.32 17 12 C15.10213071 11.23419309 13.20678756 10.46212423 11.3125 9.6875 C10.25675781 9.25824219 9.20101562 8.82898438 8.11328125 8.38671875 C2.52604991 5.89805234 2.52604991 5.89805234 0 4 C0 2.68 0 1.36 0 0 Z " fill="#D5990A" transform="translate(44,112)"/>
<path d="M0 0 C0.33 0.66 0.66 1.32 1 2 C1.99 2 2.98 2 4 2 C3.75 4.375 3.75 4.375 3 7 C0.9375 8.3125 0.9375 8.3125 -1 9 C-1 9.66 -1 10.32 -1 11 C-3.31 11 -5.62 11 -8 11 C-8 10.01 -8 9.02 -8 8 C-4.535 7.505 -4.535 7.505 -1 7 C-1.33 5.02 -1.66 3.04 -2 1 C-1.34 0.67 -0.68 0.34 0 0 Z " fill="#523C19" transform="translate(47,78)"/>
<path d="M0 0 C0.99 0 1.98 0 3 0 C3.28875 1.134375 3.5775 2.26875 3.875 3.4375 C4.24625 4.613125 4.6175 5.78875 5 7 C5.66 7.33 6.32 7.66 7 8 C7 8.66 7 9.32 7 10 C6.38125 10.144375 5.7625 10.28875 5.125 10.4375 C2.96741678 10.93152225 2.96741678 10.93152225 1 12 C0.34 11.67 -0.32 11.34 -1 11 C-2.36817102 4.95724466 -2.36817102 4.95724466 -1.0625 1.5625 C-0.711875 1.046875 -0.36125 0.53125 0 0 Z " fill="#D7BE8C" transform="translate(48,67)"/>
<path d="M0 0 C0.33 0 0.66 0 1 0 C1 5.94 1 11.88 1 18 C1.99 18.33 2.98 18.66 4 19 C4.17942163 22.94727588 4.09350689 25.5980513 2 29 C1.34 29 0.68 29 0 29 C0 19.43 0 9.86 0 0 Z " fill="#BE8A0C" transform="translate(168,109)"/>
<path d="M0 0 C0.33 0 0.66 0 1 0 C1.05398987 2.27057377 1.09278742 4.54151288 1.125 6.8125 C1.14820312 8.07707031 1.17140625 9.34164062 1.1953125 10.64453125 C1 14 1 14 -1 17 C-1.66 17 -2.32 17 -3 17 C-3 12.71 -3 8.42 -3 4 C-2.01 3.67 -1.02 3.34 0 3 C0 2.01 0 1.02 0 0 Z " fill="#9B771E" transform="translate(98,33)"/>
<path d="M0 0 C0.66 0.33 1.32 0.66 2 1 C2 7.93 2 14.86 2 22 C1.01 21.67 0.02 21.34 -1 21 C-1 20.01 -1 19.02 -1 18 C-1.99 17.67 -2.98 17.34 -4 17 C-3.01 16.67 -2.02 16.34 -1 16 C-1.33 15.34 -1.66 14.68 -2 14 C-1.34 14 -0.68 14 0 14 C0 9.38 0 4.76 0 0 Z " fill="#674D27" transform="translate(99,110)"/>
<path d="M0 0 C0.33 2.31 0.66 4.62 1 7 C-5.4 6.50769231 -5.4 6.50769231 -8.4375 3.9375 C-9.2109375 2.9784375 -9.2109375 2.9784375 -10 2 C-6.3558226 -0.4294516 -4.28758728 -0.16179575 0 0 Z " fill="#D5A21B" transform="translate(105,103)"/>
<path d="M0 0 C2.97 0 5.94 0 9 0 C9.33 0.99 9.66 1.98 10 3 C9.01 4.485 9.01 4.485 8 6 C4.375 6.6875 4.375 6.6875 1 7 C-0.0625 4.625 -0.0625 4.625 -1 2 C-0.67 1.34 -0.34 0.68 0 0 Z " fill="#805C1F" transform="translate(55,93)"/>
<path d="M0 0 C0.66 0 1.32 0 2 0 C2.1953125 6.0546875 2.1953125 6.0546875 2 8 C1.34 8.66 0.68 9.32 0 10 C-1 9 -2 8 -3 7 C-3.99 7 -4.98 7 -6 7 C-6 7.99 -6 8.98 -6 10 C-7.32 10.33 -8.64 10.66 -10 11 C-9.67 9.02 -9.34 7.04 -9 5 C-8.071875 4.731875 -7.14375 4.46375 -6.1875 4.1875 C-3.1688359 3.06289965 -2.0844857 2.29293427 0 0 Z " fill="#B59452" transform="translate(132,157)"/>
<path d="M0 0 C0.66 0 1.32 0 2 0 C2 0.66 2 1.32 2 2 C2.928125 2.12375 2.928125 2.12375 3.875 2.25 C6 3 6 3 7.25 5.0625 C7.4975 5.701875 7.745 6.34125 8 7 C7.01 7.99 6.02 8.98 5 10 C0.125 5.375 0.125 5.375 -1 2 C-0.67 1.34 -0.34 0.68 0 0 Z " fill="#6C551E" transform="translate(158,137)"/>
<path d="M0 0 C6.47713607 3.46479154 12.81642857 7.03318059 19 11 C18.67 11.66 18.34 12.32 18 13 C17.34 13 16.68 13 16 13 C16 12.34 16 11.68 16 11 C15.30519531 10.74476562 14.61039063 10.48953125 13.89453125 10.2265625 C10.64682551 8.85034172 7.72017084 7.17460687 4.6875 5.375 C3.08455078 4.42753906 3.08455078 4.42753906 1.44921875 3.4609375 C0.64097656 2.97882813 -0.16726562 2.49671875 -1 2 C-0.67 1.34 -0.34 0.68 0 0 Z " fill="#A69424" transform="translate(134,81)"/>
<path d="M0 0 C10.5 6 10.5 6 21 12 C18.64445327 12.83563878 17.45655987 13.18119775 15.09301758 12.24316406 C14.45001709 11.83807617 13.8070166 11.43298828 13.14453125 11.015625 C12.44005859 10.57476562 11.73558594 10.13390625 11.00976562 9.6796875 C10.28466797 9.20789063 9.55957031 8.73609375 8.8125 8.25 C7.70745117 7.56550781 7.70745117 7.56550781 6.58007812 6.8671875 C1.13321088 3.39963264 1.13321088 3.39963264 0 0 Z " fill="#9D6A07" transform="translate(49,126)"/>
<path d="M0 0 C0.99 0.33 1.98 0.66 3 1 C3.33 4.3 3.66 7.6 4 11 C5.98 11.66 7.96 12.32 10 13 C6.94736336 13.98120464 5.05263664 13.98120464 2 13 C2 10.69 2 8.38 2 6 C0.02 6.66 -1.96 7.32 -4 8 C-3.34 6.68 -2.68 5.36 -2 4 C-1.34 4 -0.68 4 0 4 C0 2.68 0 1.36 0 0 Z " fill="#C7AD74" transform="translate(75,137)"/>
<path d="M0 0 C0.66 0 1.32 0 2 0 C1.85820962 2.22942748 1.71140302 4.45853628 1.5625 6.6875 C1.48128906 7.92886719 1.40007812 9.17023438 1.31640625 10.44921875 C1.05508683 13.38180337 0.65201621 16.13441617 0 19 C0.99 18.67 1.98 18.34 3 18 C2.67 18.99 2.34 19.98 2 21 C1.01 20.67 0.02 20.34 -1 20 C-2.12067256 12.88221482 -1.7958955 6.97579243 0 0 Z " fill="#B08F41" transform="translate(90,89)"/>
<path d="M0 0 C1.32 0 2.64 0 4 0 C4 0.99 4 1.98 4 3 C4.99 3.33 5.98 3.66 7 4 C7.6875 6.0625 7.6875 6.0625 8 8 C7.34 8 6.68 8 6 8 C6 7.34 6 6.68 6 6 C4.6696875 5.814375 4.6696875 5.814375 3.3125 5.625 C0.29612498 5.05587264 -2.20326054 4.23385564 -5 3 C-5 2.67 -5 2.34 -5 2 C-3.35 2 -1.7 2 0 2 C0 1.34 0 0.68 0 0 Z " fill="#C4A971" transform="translate(114,113)"/>
<path d="M0 0 C0.33 0.66 0.66 1.32 1 2 C-6.28571429 5.42857143 -6.28571429 5.42857143 -11 5 C-10 2 -10 2 -7.75 0.25 C-4.57357406 -1.19382997 -3.2449843 -1.17179989 0 0 Z " fill="#775427" transform="translate(135,167)"/>
<path d="M0 0 C4.30764815 1.56641751 8.06171464 3.68336156 12 6 C10.75 7.5625 10.75 7.5625 9 9 C7.0625 8.84375 7.0625 8.84375 5 8 C3.515625 6.15234375 3.515625 6.15234375 2.25 3.9375 C1.82203125 3.20402344 1.3940625 2.47054687 0.953125 1.71484375 C0.63859375 1.14894531 0.3240625 0.58304687 0 0 Z " fill="#563D18" transform="translate(45,92)"/>
<path d="M0 0 C0.99 0 1.98 0 3 0 C3 0.66 3 1.32 3 2 C3.66 2 4.32 2 5 2 C5 3.98 5 5.96 5 8 C1.85262818 7.30058404 -1.02588876 6.23921302 -4 5 C-2.68 4.34 -1.36 3.68 0 3 C0 2.01 0 1.02 0 0 Z " fill="#5E491E" transform="translate(88,117)"/>
<path d="M0 0 C3.63 0 7.26 0 11 0 C11 2.31 11 4.62 11 7 C7.37 5.02 3.74 3.04 0 1 C0 0.67 0 0.34 0 0 Z " fill="#AA9B1D" transform="translate(156,110)"/>
<path d="M0 0 C3 2 3 2 3.51171875 3.9453125 C3.67447917 5.96354167 3.83723958 7.98177083 4 10 C2.68 9.34 1.36 8.68 0 8 C0 7.34 0 6.68 0 6 C-1.62626404 4.61767557 -3.2925002 3.28062485 -5 2 C-2.6875 0.875 -2.6875 0.875 0 0 Z " fill="#DEAC1C" transform="translate(163,120)"/>
<path d="M0 0 C0.99 0.33 1.98 0.66 3 1 C3 1.99 3 2.98 3 4 C3.66 4 4.32 4 5 4 C5 4.66 5 5.32 5 6 C2.69 6.66 0.38 7.32 -2 8 C-2.93423645 4.98968256 -3.04449911 4.13349732 -2 1 C-1.34 0.67 -0.68 0.34 0 0 Z " fill="#C68D0B" transform="translate(82,112)"/>
<path d="M0 0 C2.475 0.495 2.475 0.495 5 1 C5 3.66666667 5 6.33333333 5 9 C3.35 8.67 1.7 8.34 0 8 C0 5.36 0 2.72 0 0 Z " fill="#B48412" transform="translate(93,50)"/>
<path d="M0 0 C2.64 1.65 5.28 3.3 8 5 C5.1709277 7.8290723 4.61855575 8.37611108 1 9 C1 8.01 1 7.02 1 6 C0.34 5.67 -0.32 5.34 -1 5 C-0.67 3.35 -0.34 1.7 0 0 Z " fill="#7E5C38" transform="translate(141,30)"/>
<path d="M0 0 C0 0.66 0 1.32 0 2 C-3.67452438 4.8394052 -5.26886581 6 -10 6 C-9.875 4.1875 -9.875 4.1875 -9 2 C-3.81203008 -1.27067669 -3.81203008 -1.27067669 0 0 Z " fill="#EDC930" transform="translate(80,119)"/>
<path d="M0 0 C1.32 0.33 2.64 0.66 4 1 C4 2.98 4 4.96 4 7 C3.67 6.34 3.34 5.68 3 5 C2.34 5 1.68 5 1 5 C1 6.32 1 7.64 1 9 C-0.65 9 -2.3 9 -4 9 C-4.33 9.66 -4.66 10.32 -5 11 C-5 10.01 -5 9.02 -5 8 C-3.68 8 -2.36 8 -1 8 C-0.67 5.36 -0.34 2.72 0 0 Z " fill="#493B1B" transform="translate(59,84)"/>
<path d="M0 0 C1.65 0 3.3 0 5 0 C4.67 9.24 4.34 18.48 4 28 C3.67 28 3.34 28 3 28 C3 19.42 3 10.84 3 2 C2.01 2 1.02 2 0 2 C0 1.34 0 0.68 0 0 Z " fill="#7F7B58" transform="translate(100,62)"/>
<path d="M0 0 C3.3 1.65 6.6 3.3 10 5 C10 5.99 10 6.98 10 8 C5.545 8.495 5.545 8.495 1 9 C1 8.34 1 7.68 1 7 C2.32 6.67 3.64 6.34 5 6 C3.02 4.68 1.04 3.36 -1 2 C-0.67 1.34 -0.34 0.68 0 0 Z " fill="#A28D2D" transform="translate(170,102)"/>
<path d="M0 0 C2.64 0 5.28 0 8 0 C8 1.65 8 3.3 8 5 C5.36 5 2.72 5 0 5 C0 3.35 0 1.7 0 0 Z " fill="#7C6B49" transform="translate(99,135)"/>
<path d="M0 0 C5.445 1.485 5.445 1.485 11 3 C10.34 3.66 9.68 4.32 9 5 C9.22948952 6.96705305 9.46640351 8.93417585 9.7734375 10.890625 C10.07743661 13.72096157 9.62140038 16.23822054 9 19 C8.67 19 8.34 19 8 19 C7.92523438 18.03578125 7.85046875 17.0715625 7.7734375 16.078125 C7.3844922 9.20641879 7.3844922 9.20641879 4.53125 3.21484375 C2.73466998 2.03823597 2.73466998 2.03823597 0 1 C0 0.67 0 0.34 0 0 Z " fill="#C18C11" transform="translate(60,103)"/>
<path d="M0 0 C0.33 0 0.66 0 1 0 C1 3.3 1 6.6 1 10 C1.66 10 2.32 10 3 10 C3 10.99 3 11.98 3 13 C1.35 12.67 -0.3 12.34 -2 12 C-2 9.36 -2 6.72 -2 4 C-1.34 4 -0.68 4 0 4 C0 2.68 0 1.36 0 0 Z " fill="#93723F" transform="translate(101,43)"/>
<path d="M0 0 C0.33 0 0.66 0 1 0 C1.02698422 2.43757413 1.04683099 4.87484915 1.0625 7.3125 C1.07087891 8.00279297 1.07925781 8.69308594 1.08789062 9.40429688 C1.10307906 12.5483025 1.00193327 14.99420019 0 18 C-0.66 18 -1.32 18 -2 18 C-1.85805236 15.93722893 -1.71127784 13.87478969 -1.5625 11.8125 C-1.48128906 10.66394531 -1.40007812 9.51539062 -1.31640625 8.33203125 C-1.04596188 5.48401829 -0.62478253 2.78789518 0 0 Z " fill="#7B571B" transform="translate(92,90)"/>
<path d="M0 0 C2.475 0.99 2.475 0.99 5 2 C4.67 2.66 4.34 3.32 4 4 C3.34 4 2.68 4 2 4 C1.67 7.63 1.34 11.26 1 15 C3.64 15 6.28 15 9 15 C9 15.33 9 15.66 9 16 C6.03 16 3.06 16 0 16 C0 10.72 0 5.44 0 0 Z " fill="#A09224" transform="translate(104,64)"/>
<path d="M0 0 C0.99 0 1.98 0 3 0 C2.67 2.31 2.34 4.62 2 7 C0.02 7.66 -1.96 8.32 -4 9 C-2.25 2.25 -2.25 2.25 0 0 Z " fill="#E3D5B3" transform="translate(61,77)"/>
<path d="M0 0 C0 1.98 0 3.96 0 6 C-2.76276177 5.47731534 -5.3260876 4.89130413 -8 4 C-7.67 3.34 -7.34 2.68 -7 2 C-6.34 2.33 -5.68 2.66 -5 3 C-5 2.34 -5 1.68 -5 1 C-3 0 -3 0 0 0 Z " fill="#69572E" transform="translate(77,143)"/>
<path d="M0 0 C1.11375 0.556875 1.11375 0.556875 2.25 1.125 C-0.66765 3.0701 -2.37537285 3.57776317 -5.75 4.125 C-6.08 5.115 -6.41 6.105 -6.75 7.125 C-6.75 5.145 -6.75 3.165 -6.75 1.125 C-4.02098495 -0.69434337 -3.21400584 -1.02263822 0 0 Z " fill="#694A16" transform="translate(138.75,132.875)"/>
<path d="M0 0 C2.84741787 1.05761235 5.49767712 2.40645622 8.1875 3.8125 C7.5275 4.4725 6.8675 5.1325 6.1875 5.8125 C5.1975 5.1525 4.2075 4.4925 3.1875 3.8125 C1.13040404 3.57194532 1.13040404 3.57194532 -1 3.6875 C-2.258125 3.72875 -3.51625 3.77 -4.8125 3.8125 C-4.8125 3.1525 -4.8125 2.4925 -4.8125 1.8125 C-1.8125 -0.1875 -1.8125 -0.1875 0 0 Z " fill="#6D5A22" transform="translate(158.8125,126.1875)"/>
<path d="M0 0 C0.66 0 1.32 0 2 0 C2 2.31 2 4.62 2 7 C0.68 7 -0.64 7 -2 7 C-2 3.89448334 -1.4606285 2.64738916 0 0 Z " fill="#57441C" transform="translate(166,131)"/>
<path d="M0 0 C0.99 0.33 1.98 0.66 3 1 C3.3367697 5.93928888 3.16130459 6.78492722 0 11 C0 7.37 0 3.74 0 0 Z " fill="#CA9717" transform="translate(169,127)"/>
<path d="M0 0 C0.66 0.33 1.32 0.66 2 1 C1.95875 2.11375 1.9175 3.2275 1.875 4.375 C1.58878141 8.04366025 1.58878141 8.04366025 4 10 C3.01 10.66 2.02 11.32 1 12 C0.01 11.34 -0.98 10.68 -2 10 C-1.34 8.02 -0.68 6.04 0 4 C-0.66 3.67 -1.32 3.34 -2 3 C-1.34 2.01 -0.68 1.02 0 0 Z " fill="#E2B221" transform="translate(98,47)"/>
<path d="M0 0 C1.98 0.66 3.96 1.32 6 2 C3.4345406 4.5654594 1.52313332 4.54046087 -2 5 C-2 2 -2 2 0 0 Z " fill="#E0A824" transform="translate(70,98)"/>
<path d="M0 0 C1.98 0.99 1.98 0.99 4 2 C3.625 4.9375 3.625 4.9375 3 8 C2.01 8.495 2.01 8.495 1 9 C0.67 6.03 0.34 3.06 0 0 Z " fill="#BAB31C" transform="translate(172,120)"/>
<path d="M0 0 C4.75481646 0.57634139 7.97048212 2.55068521 12 5 C11.34 5.66 10.68 6.32 10 7 C8.51719804 6.21516341 7.0388502 5.42190666 5.5625 4.625 C4.73878906 4.18414062 3.91507812 3.74328125 3.06640625 3.2890625 C1 2 1 2 0 0 Z " fill="#A49424" transform="translate(109,68)"/>
<path d="M0 0 C-0.33 0.99 -0.66 1.98 -1 3 C-2.98 3 -4.96 3 -7 3 C-7.33 2.01 -7.66 1.02 -8 0 C-4.71303767 -0.79953138 -3.28976808 -1.09658936 0 0 Z " fill="#88846A" transform="translate(107,133)"/>
<path d="M0 0 C4.75 1.875 4.75 1.875 7 3 C6.67 4.32 6.34 5.64 6 7 C1.2 4.53846154 1.2 4.53846154 0.1875 1.8125 C0.125625 1.214375 0.06375 0.61625 0 0 Z " fill="#B36110" transform="translate(140,131)"/>
<path d="M0 0 C0.33 1.32 0.66 2.64 1 4 C1.99 3.67 2.98 3.34 4 3 C4.33 3.99 4.66 4.98 5 6 C2.6875 6.6875 2.6875 6.6875 0 7 C-1.8125 5.5625 -1.8125 5.5625 -3 4 C-2.01 4 -1.02 4 0 4 C0 2.68 0 1.36 0 0 Z " fill="#67591F" transform="translate(156,115)"/>
<path d="M0 0 C0 0.99 0 1.98 0 3 C-3.13498292 4.85776765 -5.37471432 5.20140476 -9 5 C-4.32258065 0 -4.32258065 0 0 0 Z " fill="#E9BF2D" transform="translate(76,101)"/>
<path d="M0 0 C2.64 0.33 5.28 0.66 8 1 C7.34 2.65 6.68 4.3 6 6 C3.96166576 4.7260411 1.96147874 3.38938077 0 2 C0 1.34 0 0.68 0 0 Z " fill="#C6991E" transform="translate(161,137)"/>
<path d="M0 0 C3.3 1.65 6.6 3.3 10 5 C9.34 5.66 8.68 6.32 8 7 C5.03 5.35 2.06 3.7 -1 2 C-0.67 1.34 -0.34 0.68 0 0 Z " fill="#A79524" transform="translate(158,95)"/>
<path d="M0 0 C1.67542976 0.28604898 3.34385343 0.61781233 5 1 C4.67 2.65 4.34 4.3 4 6 C2.68 5.67 1.36 5.34 0 5 C-0.5625 3.0625 -0.5625 3.0625 -1 1 C-0.67 0.67 -0.34 0.34 0 0 Z " fill="#CB9215" transform="translate(68,140)"/>
<path d="M0 0 C2.475 0.99 2.475 0.99 5 2 C4.67 4.31 4.34 6.62 4 9 C3.896875 8.360625 3.79375 7.72125 3.6875 7.0625 C3.460625 6.381875 3.23375 5.70125 3 5 C2.01 4.67 1.02 4.34 0 4 C0 2.68 0 1.36 0 0 Z " fill="#644D12" transform="translate(58,103)"/>
<path d="M0 0 C0 1.98 0 3.96 0 6 C-4.875 4.25 -4.875 4.25 -6 2 C-3 0 -3 0 0 0 Z " fill="#E9BB25" transform="translate(101,103)"/>
<path d="M0 0 C0.33 0 0.66 0 1 0 C1 2.31 1 4.62 1 7 C0.34 7 -0.32 7 -1 7 C-1 7.66 -1 8.32 -1 9 C-2.32 8.67 -3.64 8.34 -5 8 C-4.34 8 -3.68 8 -3 8 C-3 6.68 -3 5.36 -3 4 C-2.34 4 -1.68 4 -1 4 C-0.67 2.68 -0.34 1.36 0 0 Z " fill="#5F451D" transform="translate(63,85)"/>
<path d="M0 0 C3.96 1.98 3.96 1.98 8 4 C8 4.33 8 4.66 8 5 C6.02 5 4.04 5 2 5 C1.34 3.35 0.68 1.7 0 0 Z " fill="#5A401B" transform="translate(146,149)"/>
<path d="M0 0 C1.32 0 2.64 0 4 0 C4 0.99 4 1.98 4 3 C3.34 3 2.68 3 2 3 C1.67 3.99 1.34 4.98 1 6 C0.34 6 -0.32 6 -1 6 C-0.67 4.02 -0.34 2.04 0 0 Z " fill="#B9903B" transform="translate(59,73)"/>
<path d="M0 0 C3.63 0 7.26 0 11 0 C6.89473684 2.73684211 6.89473684 2.73684211 4 3 C2.68 2.01 1.36 1.02 0 0 Z " fill="#90732C" transform="translate(156,110)"/>
<path d="M0 0 C0.66 0.33 1.32 0.66 2 1 C1.67 1.66 1.34 2.32 1 3 C1.99 3.33 2.98 3.66 4 4 C1.69 4.33 -0.62 4.66 -3 5 C-2.625 3.0625 -2.625 3.0625 -2 1 C-1.34 0.67 -0.68 0.34 0 0 Z " fill="#93794B" transform="translate(123,169)"/>
<path d="M0 0 C0.33 0.66 0.66 1.32 1 2 C1.99 2 2.98 2 4 2 C3.67 3.65 3.34 5.3 3 7 C2.67 6.34 2.34 5.68 2 5 C1.34 5 0.68 5 0 5 C0 3.35 0 1.7 0 0 Z " fill="#443A1B" transform="translate(47,78)"/>
</svg>
