<?xml version="1.0" encoding="UTF-8"?>
<svg version="1.1" xmlns="http://www.w3.org/2000/svg" width="197" height="197">
<path d="M0 0 C65.01 0 130.02 0 197 0 C197 65.01 197 130.02 197 197 C131.99 197 66.98 197 0 197 C0 131.99 0 66.98 0 0 Z " fill="#E5E6D3" transform="translate(0,0)"/>
<path d="M0 0 C65.01 0 130.02 0 197 0 C197 65.01 197 130.02 197 197 C131.99 197 66.98 197 0 197 C0 131.99 0 66.98 0 0 Z M28.6875 38.375 C22.17526235 46.10486192 17.32666186 54.82591238 13.1875 64 C12.7706897 64.90504272 12.7706897 64.90504272 12.34545898 65.82836914 C7.73401447 76.51171262 6.48766752 87.39760234 6.625 98.9375 C6.63442627 100.16734619 6.64385254 101.39719238 6.65356445 102.66430664 C6.7948324 111.14657423 7.33070114 118.89523372 10 127 C10.3403125 128.06347656 10.680625 129.12695312 11.03125 130.22265625 C19.99009514 155.6161396 37.89278099 174.34355441 62 186 C65.61747883 187.54972091 69.2360518 188.85748621 73 190 C74.19625 190.391875 75.3925 190.78375 76.625 191.1875 C101.04659833 197.06677367 127.3756927 192.88107018 148.91259766 180.30517578 C170.61363395 166.95212316 185.55765226 145.65481521 191.7421875 121.046875 C196.64081573 95.41295739 192.50279339 69.24777384 177.859375 47.57421875 C162.81107228 26.74053915 141.97129152 11.73011574 116.2265625 7.359375 C82.25494097 3.82379141 52.22117958 13.37333261 28.6875 38.375 Z " fill="#FEFEFE" transform="translate(0,0)"/>
<path d="M0 0 C1.8125 1.5625 1.8125 1.5625 3 3 C1.35 3.66 -0.3 4.32 -2 5 C-0.8321734 8.81413002 -0.8321734 8.81413002 2.125 11.3125 C3.053125 11.6528125 3.053125 11.6528125 4 12 C4 12.66 4 13.32 4 14 C4.53625 14.0825 5.0725 14.165 5.625 14.25 C9.0450805 15.33002542 11.61093338 16.30922136 14 19 C15.49669369 22.28347688 16.69266894 25.57814893 17.82421875 29.00390625 C18.75921634 31.99550653 18.75921634 31.99550653 20.70703125 33.65234375 C22 35 22 35 22.046875 36.94921875 C20.47017015 40.03791296 18.22043286 41.09182243 15.25 42.8125 C14.20328125 43.43769531 13.1565625 44.06289062 12.078125 44.70703125 C8.66980123 46.13870024 7.40519901 46.33816349 4 45 C2.1484375 43.40625 2.1484375 43.40625 0.375 41.5 C-4.29688424 37.12346476 -8.79203657 36.92011812 -15 37 C-15 39.31 -15 41.62 -15 44 C-20.75 43.125 -20.75 43.125 -23 42 C-23 41.34 -23 40.68 -23 40 C-23.763125 39.773125 -24.52625 39.54625 -25.3125 39.3125 C-28.68439721 37.6657595 -29.54704383 36.44121198 -31 33 C-31.1875 29.1875 -31.1875 29.1875 -31 26 C-30.01 25.67 -29.02 25.34 -28 25 C-28 22.69 -28 20.38 -28 18 C-27.01257813 17.50371094 -26.02515625 17.00742188 -25.0078125 16.49609375 C-23.71290152 15.81110461 -22.41866531 15.12483881 -21.125 14.4375 C-20.14853516 13.95313477 -20.14853516 13.95313477 -19.15234375 13.45898438 C-15.3625929 11.40783056 -14.21792337 10.63727119 -12.76171875 6.37890625 C-12.51035156 5.26386719 -12.25898437 4.14882813 -12 3 C-8.66194612 -0.43054404 -4.52188551 -1.88411896 0 0 Z " fill="#ECA537" transform="translate(57,49)"/>
<path d="M0 0 C2.33333333 2.33333333 4.66666667 4.66666667 7 7 C9.475 7.99 9.475 7.99 12 9 C12 17.58 12 26.16 12 35 C13.98 35.33 15.96 35.66 18 36 C18 27.75 18 19.5 18 11 C18.66 11 19.32 11 20 11 C20 19.58 20 28.16 20 37 C20.99 37 21.98 37 23 37 C23 28.42 23 19.84 23 11 C25.2275 10.87625 27.455 10.7525 29.75 10.625 C34.08616961 10.38410169 37.20688238 10.10159219 41 8 C41.99 8 42.98 8 44 8 C44 12.62 44 17.24 44 22 C45.65 21.34 47.3 20.68 49 20 C52.37932259 20.31435559 53.57479454 20.57479454 56 23 C56.1953125 26.0390625 56.1953125 26.0390625 56.125 29.625 C56.10695312 30.81351563 56.08890625 32.00203125 56.0703125 33.2265625 C56.04710937 34.14179688 56.02390625 35.05703125 56 36 C52.03125 32.40625 52.03125 32.40625 51.75 28.75 C51.8325 27.8425 51.915 26.935 52 26 C48.52451159 26.53977565 48.52451159 26.53977565 45 28 C43.73751094 30.87064083 43.73751094 30.87064083 43 34 C39.98337506 37.74477578 36.86201419 39.65181616 32.03735352 40.23876953 C15.31007454 41.25322463 15.31007454 41.25322463 9.609375 36.703125 C-0.13887901 26.38701154 -0.13887901 26.38701154 -0.09765625 18.5546875 C-0.09443359 17.47832031 -0.09121094 16.40195313 -0.08789062 15.29296875 C-0.07951172 14.16503906 -0.07113281 13.03710938 -0.0625 11.875 C-0.05798828 10.73933594 -0.05347656 9.60367188 -0.04882812 8.43359375 C-0.03701615 5.62234362 -0.02054507 2.8111977 0 0 Z " fill="#8E991C" transform="translate(93,127)"/>
<path d="M0 0 C0.33 0.99 0.66 1.98 1 3 C0.01 3 -0.98 3 -2 3 C-2.23460937 3.60328125 -2.46921875 4.2065625 -2.7109375 4.828125 C-4.3153573 7.53132927 -5.85058687 8.32315896 -8.625 9.75 C-9.44226563 10.17796875 -10.25953125 10.6059375 -11.1015625 11.046875 C-11.72804687 11.36140625 -12.35453125 11.6759375 -13 12 C-12.67 13.32 -12.34 14.64 -12 16 C-8.0177814 15.43111163 -5.39432507 14.10998585 -2 12 C-1.34 12 -0.68 12 0 12 C0 12.99 0 13.98 0 15 C1.32 15 2.64 15 4 15 C5.33808743 19.85056693 6.23572277 23.93196035 6 29 C6 29.99 6 30.98 6 32 C2.6875 32.6875 2.6875 32.6875 -1 33 C-2.625 31.5 -2.625 31.5 -4 30 C-6.6272914 30.07533247 -6.6272914 30.07533247 -9 31 C-9.33 31.66 -9.66 32.32 -10 33 C-10.66 33 -11.32 33 -12 33 C-12.12375 33.53625 -12.2475 34.0725 -12.375 34.625 C-13.12206016 37.4638286 -14.05303364 40.22223202 -15 43 C-16.65 42.67 -18.3 42.34 -20 42 C-19.67 39.69 -19.34 37.38 -19 35 C-22.31114834 33.87119943 -25.58978257 32.78697325 -29 32 C-29 30.68 -29 29.36 -29 28 C-29.66 28 -30.32 28 -31 28 C-31.08194658 22.28715282 -30.61313719 18.05328226 -26.875 13.5625 C-24.16058912 10.80413105 -21.74029516 9.11293953 -18.0234375 7.8515625 C-14.25836628 6.26703446 -10.99637794 3.74247929 -7.6484375 1.42578125 C-4.79622246 -0.10970325 -3.18396973 -0.3046036 0 0 Z " fill="#BEBEBA" transform="translate(160,65)"/>
<path d="M0 0 C0.66 0.33 1.32 0.66 2 1 C3.49933215 1.04475618 5.00050573 1.0389479 6.5 1 C10.77777778 0.88888889 10.77777778 0.88888889 13 2 C12.67 5.63 12.34 9.26 12 13 C16.455 15.475 16.455 15.475 21 18 C20 20 20 20 17.36328125 21.109375 C9.20603286 23.26948259 -1.03346904 23.04453412 -9 20 C-11.77039685 18.15306876 -13.51562895 16.9687421 -15 14 C-15.04320247 11.66706666 -15.04022391 9.3329866 -15 7 C-15 5.68 -15 4.36 -15 3 C-11.8125 1.8125 -11.8125 1.8125 -8 1 C-5.0625 2.375 -5.0625 2.375 -3 4 C-2.67 3.34 -2.34 2.68 -2 2 C-1.34 2 -0.68 2 0 2 C0 1.34 0 0.68 0 0 Z " fill="#D0CECC" transform="translate(113,110)"/>
<path d="M0 0 C0.66 0.33 1.32 0.66 2 1 C1.896875 2.051875 1.79375 3.10375 1.6875 4.1875 C1.68481661 8.04228359 1.68481661 8.04228359 3.9375 10.8125 C12.36087156 16.82919397 24.52455236 15.88146522 34.375 14.5 C35.24125 14.335 36.1075 14.17 37 14 C37.66 15.65 38.32 17.3 39 19 C32.25871811 22.95142831 26.67304245 22.21716158 19 22 C19 30.58 19 39.16 19 48 C18.01 48 17.02 48 16 48 C16 39.42 16 30.84 16 22 C15.34 22 14.68 22 14 22 C14 30.25 14 38.5 14 47 C12.02 46.67 10.04 46.34 8 46 C7.67 37.42 7.34 28.84 7 20 C4.525 19.01 4.525 19.01 2 18 C-1.48148172 14.75061706 -3.31097313 12.6996859 -3.5 7.875 C-3.01626206 4.12603093 -2.62071929 2.62071929 0 0 Z " fill="#F5F6F0" transform="translate(97,116)"/>
<path d="M0 0 C1.32 0.33 2.64 0.66 4 1 C4.02449219 1.74378906 4.04898438 2.48757812 4.07421875 3.25390625 C5.21681726 6.64313305 6.77550347 7.37971366 9.86914062 8.99023438 C10.51044922 9.30283203 11.15175781 9.61542969 11.8125 9.9375 C17.16078824 12.55963927 19.85140725 14.72298792 23 20 C23.66 20.33 24.32 20.66 25 21 C25 20.34 25 19.68 25 19 C26.32 19.33 27.64 19.66 29 20 C29 21.32 29 22.64 29 24 C29.66 24 30.32 24 31 24 C31 24.66 31 25.32 31 26 C32.32 26 33.64 26 35 26 C35 25.34 35 24.68 35 24 C36.45537568 23.16151196 37.91440373 22.32936066 39.375 21.5 C40.18710938 21.0359375 40.99921875 20.571875 41.8359375 20.09375 C44 19 44 19 46 19 C44.6621001 23.01369969 42.85163712 23.62415565 39.25 25.75 C38.20328125 26.38421875 37.1565625 27.0184375 36.078125 27.671875 C32.66464315 29.14469712 31.42137204 29.35024047 28 28 C26.1484375 26.40625 26.1484375 26.40625 24.375 24.5 C19.70311576 20.12346476 15.20796343 19.92011812 9 20 C9 22.31 9 24.62 9 27 C3.25 26.125 3.25 26.125 1 25 C1 24.34 1 23.68 1 23 C0.236875 22.773125 -0.52625 22.54625 -1.3125 22.3125 C-4.68439721 20.6657595 -5.54704383 19.44121198 -7 16 C-7.4375 12.4375 -7.4375 12.4375 -7 9 C-5.1875 6.875 -5.1875 6.875 -3 5 C-1.95650161 3.36021682 -0.94392019 1.69905634 0 0 Z " fill="#292A29" transform="translate(33,66)"/>
<path d="M0 0 C1.8125 1.5625 1.8125 1.5625 3 3 C1.35 3.66 -0.3 4.32 -2 5 C-0.8321734 8.81413002 -0.8321734 8.81413002 2.125 11.3125 C2.74375 11.539375 3.3625 11.76625 4 12 C4 12.66 4 13.32 4 14 C4.53625 14.0825 5.0725 14.165 5.625 14.25 C9.15467111 15.36463298 11.17704876 16.52991767 14 19 C15.78062335 22.54530082 17.14190738 26.12378851 18 30 C17.67 30.99 17.34 31.98 17 33 C16.01 32.505 16.01 32.505 15 32 C15 29.69 15 27.38 15 25 C13.35 25 11.7 25 10 25 C10 23.68 10 22.36 10 21 C9.49210937 21.37253906 8.98421875 21.74507812 8.4609375 22.12890625 C2.88301094 25.96242507 2.88301094 25.96242507 -0.9375 26.125 C-5.2339393 24.54671617 -9.08595839 22.35712284 -13 20 C-13 18.02 -13 16.04 -13 14 C-13.99 14 -14.98 14 -16 14 C-16 13.01 -16 12.02 -16 11 C-15.34 10.67 -14.68 10.34 -14 10 C-13.6596875 8.3603125 -13.6596875 8.3603125 -13.3125 6.6875 C-11.99723769 2.99223924 -11.78488957 2.41072733 -8.6875 0.5 C-4.96439088 -1.01448506 -3.64681831 -1.51950763 0 0 Z " fill="#926046" transform="translate(57,49)"/>
<path d="M0 0 C1.81074873 3.84784105 2.18404746 6.76690853 2 11 C2 11.99 2 12.98 2 14 C-1.3125 14.6875 -1.3125 14.6875 -5 15 C-6.625 13.5 -6.625 13.5 -8 12 C-10.6272914 12.07533247 -10.6272914 12.07533247 -13 13 C-13.33 13.66 -13.66 14.32 -14 15 C-14.66 15 -15.32 15 -16 15 C-16.12375 15.53625 -16.2475 16.0725 -16.375 16.625 C-17.12206016 19.4638286 -18.05303364 22.22223202 -19 25 C-20.65 24.67 -22.3 24.34 -24 24 C-23.67 21.69 -23.34 19.38 -23 17 C-26.31114834 15.87119943 -29.58978257 14.78697325 -33 14 C-33 12.68 -33 11.36 -33 10 C-33.66 10 -34.32 10 -35 10 C-34.34 8.35 -33.68 6.7 -33 5 C-30.00675737 6.0975223 -29.15389099 6.67682892 -27.75 9.625 C-27.5025 10.40875 -27.255 11.1925 -27 12 C-26.39671875 11.79503906 -25.7934375 11.59007813 -25.171875 11.37890625 C-24.37265625 11.10949219 -23.5734375 10.84007813 -22.75 10.5625 C-21.96109375 10.29566406 -21.1721875 10.02882813 -20.359375 9.75390625 C-18.25178012 9.08045292 -16.15246027 8.50849405 -14 8 C-13.67 6.68 -13.34 5.36 -13 4 C-13 4.66 -13 5.32 -13 6 C-11.96939453 5.3503125 -11.96939453 5.3503125 -10.91796875 4.6875 C-10.01691406 4.130625 -9.11585938 3.57375 -8.1875 3 C-7.29417969 2.443125 -6.40085938 1.88625 -5.48046875 1.3125 C-3 0 -3 0 0 0 Z " fill="#777777" transform="translate(164,83)"/>
<path d="M0 0 C0.99 0 1.98 0 3 0 C3 0.66 3 1.32 3 2 C4.0209375 2.37125 4.0209375 2.37125 5.0625 2.75 C8.56865083 4.24197908 11.71620368 6.06835511 15 8 C15 8.66 15 9.32 15 10 C12.91904721 11.39818654 10.85287677 12.68337637 8.6875 13.9375 C3.43507981 17.00473129 -0.45941645 19.33254438 -3 25 C-6.42430894 23.76344399 -9.40112619 22.59887381 -12 20 C-12.25 17.3125 -12.25 17.3125 -12 15 C-12.928125 14.7834375 -12.928125 14.7834375 -13.875 14.5625 C-16 14 -16 14 -18 13 C-18 12.01 -18 11.02 -18 10 C-17.1646875 10.2165625 -17.1646875 10.2165625 -16.3125 10.4375 C-15.1678125 10.7159375 -15.1678125 10.7159375 -14 11 C-13.236875 11.268125 -12.47375 11.53625 -11.6875 11.8125 C-7.60236597 12.09750935 -5.44331765 10.1439525 -2 8 C-1.34 8 -0.68 8 0 8 C0 5.36 0 2.72 0 0 Z " fill="#E1E2D1" transform="translate(92,88)"/>
<path d="M0 0 C0.76828125 0.77988281 1.5365625 1.55976563 2.328125 2.36328125 C4.92722863 5.0218942 4.92722863 5.0218942 7.75 7.1875 C10 9 10 9 11 11 C11.08449628 12.7404417 11.10723024 14.48409722 11.09765625 16.2265625 C11.09443359 17.2578125 11.09121094 18.2890625 11.08789062 19.3515625 C11.07951172 20.43179688 11.07113281 21.51203125 11.0625 22.625 C11.05798828 23.71296875 11.05347656 24.8009375 11.04882812 25.921875 C11.03701776 28.61463789 11.02054778 31.30729188 11 34 C5.78002625 31.55068263 2.62216571 29.24433143 0 24 C-0.08471364 22.18658158 -0.10721083 20.37005839 -0.09765625 18.5546875 C-0.09443359 17.47832031 -0.09121094 16.40195313 -0.08789062 15.29296875 C-0.07951172 14.16503906 -0.07113281 13.03710938 -0.0625 11.875 C-0.05798828 10.73933594 -0.05347656 9.60367188 -0.04882812 8.43359375 C-0.03701615 5.62234362 -0.02054507 2.8111977 0 0 Z " fill="#717A20" transform="translate(93,127)"/>
<path d="M0 0 C0.99 0.33 1.98 0.66 3 1 C3 9.58 3 18.16 3 27 C4.98 27.33 6.96 27.66 9 28 C9 19.75 9 11.5 9 3 C9.66 3 10.32 3 11 3 C11 11.58 11 20.16 11 29 C11.99 29 12.98 29 14 29 C14 20.42 14 11.84 14 3 C17.96 3 21.92 3 26 3 C26 3.33 26 3.66 26 4 C22.37 4 18.74 4 15 4 C15 12.25 15 20.5 15 29 C23.91 27.515 23.91 27.515 33 26 C32 29 32 29 28.99609375 30.65625 C24.7037904 32.32894562 20.63156487 32.53596556 16.0625 32.5 C15.26779297 32.49718018 14.47308594 32.49436035 13.65429688 32.49145508 C7.78714537 32.32881454 3.18702464 31.42379091 -1 27 C-1.66 26.01 -2.32 25.02 -3 24 C-1.68 24.33 -0.36 24.66 1 25 C1.02900455 21.3958502 1.04680018 17.79173038 1.0625 14.1875 C1.07087891 13.16333984 1.07925781 12.13917969 1.08789062 11.08398438 C1.09111328 10.10107422 1.09433594 9.11816406 1.09765625 8.10546875 C1.10289307 7.19949951 1.10812988 6.29353027 1.11352539 5.36010742 C1.09920981 2.84715961 1.09920981 2.84715961 0 0 Z " fill="#9CA350" transform="translate(102,135)"/>
<path d="M0 0 C0.66 0 1.32 0 2 0 C2 1.98 2 3.96 2 6 C2.763125 5.814375 3.52625 5.62875 4.3125 5.4375 C7 5 7 5 10 6 C10.33 6.99 10.66 7.98 11 9 C11.66 9 12.32 9 13 9 C12.67 7.35 12.34 5.7 12 4 C16.67183724 5.33481064 20.35101946 6.74764778 24 10 C25.7743202 13.5486404 27.14182226 17.12340402 28 21 C27.67 21.99 27.34 22.98 27 24 C26.34 23.67 25.68 23.34 25 23 C25 20.69 25 18.38 25 16 C23.35 16 21.7 16 20 16 C20 14.68 20 13.36 20 12 C19.49210937 12.37253906 18.98421875 12.74507812 18.4609375 13.12890625 C12.80620465 17.01521141 12.80620465 17.01521141 8.6875 16.9375 C6 16 6 16 3 14 C2.05078125 11.50390625 2.05078125 11.50390625 1.3125 8.5625 C1.06113281 7.59441406 0.80976562 6.62632813 0.55078125 5.62890625 C0 3 0 3 0 0 Z " fill="#161310" transform="translate(47,58)"/>
<path d="M0 0 C0 0.66 0 1.32 0 2 C0.99 2 1.98 2 3 2 C3 3.98 3 5.96 3 8 C4.3303125 8.4021875 4.3303125 8.4021875 5.6875 8.8125 C8.78051006 9.92131493 11.20489219 11.30822422 14 13 C14.70125 13.165 15.4025 13.33 16.125 13.5 C18.45512762 14.12136737 19.43996032 15.20595437 21 17 C20.505 18.485 20.505 18.485 20 20 C16.45756548 18.63408831 13.07372071 17.09068516 9.6875 15.375 C8.80449219 14.92898437 7.92148437 14.48296875 7.01171875 14.0234375 C6.01591797 13.51683594 6.01591797 13.51683594 5 13 C5.99 13.66 6.98 14.32 8 15 C8 15.66 8 16.32 8 17 C3.39949779 15.6855708 -0.30333608 14.08055326 -4 11 C-4.375 8.25 -4.375 8.25 -4 6 C-5.32 5.67 -6.64 5.34 -8 5 C-8.28875 5.78375 -8.5775 6.5675 -8.875 7.375 C-10 10 -10 10 -12 12 C-12.625 9.375 -12.625 9.375 -12 6 C-8.6766138 3.32684153 -4.39617525 0 0 0 Z " fill="#BC7216" transform="translate(41,61)"/>
<path d="M0 0 C1.99954746 -0.04254356 4.00041636 -0.04080783 6 0 C6.33 0.33 6.66 0.66 7 1 C6.91015699 2.85772162 6.75388139 4.71247985 6.5625 6.5625 C6.46066406 7.57441406 6.35882813 8.58632812 6.25390625 9.62890625 C6.17011719 10.41136719 6.08632812 11.19382813 6 12 C8.475 12.99 8.475 12.99 11 14 C7.67783762 16.21477492 6.44966677 16.29667707 2.5625 16.3125 C1.61503906 16.32925781 0.66757813 16.34601563 -0.30859375 16.36328125 C-3.42448721 15.94270347 -4.79511768 15.2203733 -7 13 C-7.25 9.8125 -7.25 9.8125 -7 7 C-5.35 6.67 -3.7 6.34 -2 6 C-1.34 4.02 -0.68 2.04 0 0 Z " fill="#D0CDC9" transform="translate(154,132)"/>
<path d="M0 0 C4.146913 1.82952044 5.77315985 4.02349973 8 8 C8 9.32 8 10.64 8 12 C-1.13031255 17.07491318 -1.13031255 17.07491318 -5 16 C-9.09125403 11.26275849 -9.09125403 11.26275849 -8.85546875 8 C-7.72707338 5.36192498 -6.2747412 4.38235894 -3.9375 2.75 C-3.20402344 2.22921875 -2.47054687 1.7084375 -1.71484375 1.171875 C-1.14894531 0.78515625 -0.58304688 0.3984375 0 0 Z " fill="#CACACA" transform="translate(142,79)"/>
<path d="M0 0 C1.32 0.33 2.64 0.66 4 1 C4.12375 1.78375 4.2475 2.5675 4.375 3.375 C4.79117993 6.14057822 4.79117993 6.14057822 7 8 C2.375 10.125 2.375 10.125 -1 9 C-1 9.66 -1 10.32 -1 11 C-0.34 11 0.32 11 1 11 C2.99785435 15.1205746 3.17835515 18.45194365 3 23 C3.66 23.33 4.32 23.66 5 24 C5 24.66 5 25.32 5 26 C3.68 25.67 2.36 25.34 1 25 C1 24.34 1 23.68 1 23 C0.236875 22.773125 -0.52625 22.54625 -1.3125 22.3125 C-4.68439721 20.6657595 -5.54704383 19.44121198 -7 16 C-7.4375 12.4375 -7.4375 12.4375 -7 9 C-5.1875 6.875 -5.1875 6.875 -3 5 C-1.95650161 3.36021682 -0.94392019 1.69905634 0 0 Z " fill="#3E3E3C" transform="translate(33,66)"/>
<path d="M0 0 C0.33 0 0.66 0 1 0 C1 4.29 1 8.58 1 13 C3.97 13.495 3.97 13.495 7 14 C7 10.04 7 6.08 7 2 C10.3 1.34 13.6 0.68 17 0 C16.67447917 2.01822917 16.34895833 4.03645833 16.0234375 6.0546875 C16.01570313 6.69664062 16.00796875 7.33859375 16 8 C16.66 8.66 17.32 9.32 18 10 C17.875 12 17.875 12 17 14 C14.11674691 15.80362088 11.87575165 16.27312159 8.5 16.25 C7.7471875 16.25515625 6.994375 16.2603125 6.21875 16.265625 C4 16 4 16 0 14 C0 9.38 0 4.76 0 0 Z " fill="#CBCBCA" transform="translate(149,150)"/>
<path d="M0 0 C0.66 0.33 1.32 0.66 2 1 C3.49933215 1.04475618 5.00050573 1.0389479 6.5 1 C10.77777778 0.88888889 10.77777778 0.88888889 13 2 C12.69230293 3.81332154 12.37870936 5.62564345 12.0625 7.4375 C11.88847656 8.44683594 11.71445313 9.45617187 11.53515625 10.49609375 C11 13 11 13 10 14 C8.00390625 14.16796875 8.00390625 14.16796875 5.5625 14.1875 C4.35787109 14.20876953 4.35787109 14.20876953 3.12890625 14.23046875 C1 14 1 14 -1 12 C-1.4140625 9.6171875 -1.4140625 9.6171875 -1.625 6.875 C-1.69976562 5.96492188 -1.77453125 5.05484375 -1.8515625 4.1171875 C-1.90054688 3.41851562 -1.94953125 2.71984375 -2 2 C-1.34 2 -0.68 2 0 2 C0 1.34 0 0.68 0 0 Z " fill="#F65E1B" transform="translate(113,110)"/>
<path d="M0 0 C1.81074873 3.84784105 2.18404746 6.76690853 2 11 C2 11.99 2 12.98 2 14 C-1.3125 14.6875 -1.3125 14.6875 -5 15 C-6.6875 13.5625 -6.6875 13.5625 -8 12 C-9.32 12 -10.64 12 -12 12 C-12.33 10.02 -12.66 8.04 -13 6 C-11.40089132 4.99193149 -9.79551738 3.99379615 -8.1875 3 C-7.29417969 2.443125 -6.40085938 1.88625 -5.48046875 1.3125 C-3 0 -3 0 0 0 Z " fill="#878785" transform="translate(164,83)"/>
<path d="M0 0 C0.70125 0.639375 1.4025 1.27875 2.125 1.9375 C7.25563818 5.4617005 14.00547682 4.83576649 20 5 C19 8 19 8 17 9 C15.02 9 13.04 9 11 9 C11 12.96 11 16.92 11 21 C9.02 20.67 7.04 20.34 5 20 C5 15.71 5 11.42 5 7 C3.68 6.34 2.36 5.68 1 5 C0.25 2.375 0.25 2.375 0 0 Z " fill="#F1F1F1" transform="translate(145,143)"/>
<path d="M0 0 C1.65 0 3.3 0 5 0 C5 2.31 5 4.62 5 7 C5.78375 7.103125 6.5675 7.20625 7.375 7.3125 C10 8 10 8 12 11 C10.54462432 11.83848804 9.08559627 12.67063934 7.625 13.5 C6.81289062 13.9640625 6.00078125 14.428125 5.1640625 14.90625 C3 16 3 16 1 16 C1 16.66 1 17.32 1 18 C-0.32 18 -1.64 18 -3 18 C-3 17.34 -3 16.68 -3 16 C-3.66 15.67 -4.32 15.34 -5 15 C-2.69 12.03 -0.38 9.06 2 6 C1.34 5.34 0.68 4.68 0 4 C0 2.68 0 1.36 0 0 Z " fill="#BE7214" transform="translate(67,74)"/>
<path d="M0 0 C1.65 1.32 3.3 2.64 5 4 C5 3.34 5 2.68 5 2 C6.32 2.33 7.64 2.66 9 3 C9 4.32 9 5.64 9 7 C9.66 7 10.32 7 11 7 C11 7.66 11 8.32 11 9 C12.32 9 13.64 9 15 9 C15 8.34 15 7.68 15 7 C16.45537568 6.16151196 17.91440373 5.32936066 19.375 4.5 C20.59316406 3.80390625 20.59316406 3.80390625 21.8359375 3.09375 C24 2 24 2 26 2 C24.6621001 6.01369969 22.85163712 6.62415565 19.25 8.75 C18.20328125 9.38421875 17.1565625 10.0184375 16.078125 10.671875 C12.66464315 12.14469712 11.42137204 12.35024047 8 11 C6.1484375 9.40625 6.1484375 9.40625 4.375 7.5 C-0.29688424 3.12346476 -4.79203657 2.92011812 -11 3 C-11 5.31 -11 7.62 -11 10 C-12.32 9.67 -13.64 9.34 -15 9 C-14.01 9 -13.02 9 -12 9 C-12 6.69 -12 4.38 -12 2 C-8.90521121 0.96840374 -7.47368607 1.02517138 -4.3125 1.4375 C-3.50425781 1.53933594 -2.69601563 1.64117187 -1.86328125 1.74609375 C-1.24839844 1.82988281 -0.63351563 1.91367188 0 2 C0 1.34 0 0.68 0 0 Z " fill="#5E574A" transform="translate(53,83)"/>
<path d="M0 0 C2 2 2 2 2.125 5.625 C2.08375 6.73875 2.0425 7.8525 2 9 C0.61518672 9.87191947 -0.78345246 10.72190384 -2.1875 11.5625 C-2.96480469 12.03816406 -3.74210937 12.51382813 -4.54296875 13.00390625 C-7.52682657 14.21357834 -8.97950601 14.02043716 -12 13 C-13.8125 10.9375 -13.8125 10.9375 -15 9 C-9.70769231 4.93846154 -9.70769231 4.93846154 -6.125 5.25 C-5.42375 5.4975 -4.7225 5.745 -4 6 C-4 5.01 -4 4.02 -4 3 C-3.34 3 -2.68 3 -2 3 C-2 2.34 -2 1.68 -2 1 C-1.34 0.67 -0.68 0.34 0 0 Z " fill="#FAFAF8" transform="translate(90,87)"/>
<path d="M0 0 C3.96 0 7.92 0 12 0 C12 0.33 12 0.66 12 1 C8.37 1 4.74 1 1 1 C1 9.25 1 17.5 1 26 C9.91 24.515 9.91 24.515 19 23 C18 26 18 26 15.0625 27.6875 C7.75955165 30.53086104 0.29074376 29.16022037 -7 27 C-7 26.67 -7 26.34 -7 26 C-4.69 26 -2.38 26 0 26 C0 17.42 0 8.84 0 0 Z " fill="#989C74" transform="translate(116,138)"/>
<path d="M0 0 C2 2 2 2 2.1953125 5.0390625 C2.17210937 6.22242188 2.14890625 7.40578125 2.125 8.625 C2.10695312 9.81351563 2.08890625 11.00203125 2.0703125 12.2265625 C2.04710937 13.14179688 2.02390625 14.05703125 2 15 C-1.96875 11.40625 -1.96875 11.40625 -2.25 7.75 C-2.1675 6.8425 -2.085 5.935 -2 5 C-6.95 6.485 -6.95 6.485 -12 8 C-11 3 -11 3 -10 1 C-6.31139419 -0.94676418 -3.9790248 -1.29049453 0 0 Z " fill="#888886" transform="translate(147,148)"/>
<path d="M0 0 C0.99 0 1.98 0 3 0 C3 0.66 3 1.32 3 2 C3.680625 2.2475 4.36125 2.495 5.0625 2.75 C8.56865083 4.24197908 11.71620368 6.06835511 15 8 C15 8.66 15 9.32 15 10 C12 12 12 12 9.125 11.8125 C5.73007087 10.92981843 3.63759244 10.3361533 1 8 C0.26609248 5.2694323 0.14035077 2.8537989 0 0 Z " fill="#9F9F9C" transform="translate(92,88)"/>
<path d="M0 0 C3.79653392 0.70954639 6.87675608 2.34199336 10.25 4.1875 C11.86648437 5.04408203 11.86648437 5.04408203 13.515625 5.91796875 C16 8 16 8 16.359375 11.23828125 C16.24078125 12.14964844 16.1221875 13.06101562 16 14 C11.22946208 14 9.60576837 13.03212341 6 10 C5.625 7.25 5.625 7.25 6 5 C5.071875 4.7834375 5.071875 4.7834375 4.125 4.5625 C2 4 2 4 0 3 C0 2.01 0 1.02 0 0 Z " fill="#969794" transform="translate(74,98)"/>
<path d="M0 0 C0 0.99 0 1.98 0 3 C1.32 3 2.64 3 4 3 C4 3.99 4 4.98 4 6 C2.3970947 6.81498562 0.79262722 7.62689927 -0.8125 8.4375 C-2.15248047 9.11619141 -2.15248047 9.11619141 -3.51953125 9.80859375 C-6 11 -6 11 -9 12 C-9.99 9.69 -10.98 7.38 -12 5 C-10.37750059 4.16180842 -8.75191503 3.3295884 -7.125 2.5 C-6.22007812 2.0359375 -5.31515625 1.571875 -4.3828125 1.09375 C-2 0 -2 0 0 0 Z " fill="#CBCBC9" transform="translate(160,77)"/>
<path d="M0 0 C1.32 0.66 2.64 1.32 4 2 C4 3.32 4 4.64 4 6 C2.59248779 6.86916887 1.1735479 7.71985149 -0.25 8.5625 C-1.03890625 9.03816406 -1.8278125 9.51382813 -2.640625 10.00390625 C-5.30844625 11.13022151 -6.34501768 11.0169313 -9 10 C-8.62669176 7.27425729 -8.20805399 6.19177915 -6.15234375 4.296875 C-5.42144531 3.78640625 -4.69054687 3.2759375 -3.9375 2.75 C-3.20402344 2.22921875 -2.47054687 1.7084375 -1.71484375 1.171875 C-1.14894531 0.78515625 -0.58304688 0.3984375 0 0 Z " fill="#F5F5F5" transform="translate(142,79)"/>
<path d="M0 0 C3.95360706 0.59126016 6.86770579 1.79665746 10.3125 3.8125 C11.19550781 4.31394531 12.07851563 4.81539063 12.98828125 5.33203125 C13.65214844 5.88246094 14.31601562 6.43289062 15 7 C15 8.32 15 9.64 15 11 C13.02 11 11.04 11 9 11 C9.66 10.01 10.32 9.02 11 8 C9.68 8.33 8.36 8.66 7 9 C6.34 8.01 5.68 7.02 5 6 C4.01 6 3.02 6 2 6 C1.01 6 0.02 6 -1 6 C-1.33 5.01 -1.66 4.02 -2 3 C-1.34 2.01 -0.68 1.02 0 0 Z " fill="#38342F" transform="translate(38,74)"/>
<path d="M0 0 C0.66 0 1.32 0 2 0 C2 1.98 2 3.96 2 6 C2.763125 5.814375 3.52625 5.62875 4.3125 5.4375 C7 5 7 5 10 6 C10 9.63 10 13.26 10 17 C7.1875 16.4375 7.1875 16.4375 4 15 C1.15711449 10.09847325 0.49111921 5.59875902 0 0 Z " fill="#55574F" transform="translate(47,58)"/>
<path d="M0 0 C1.8125 1.5625 1.8125 1.5625 3 3 C-2.23076923 6.89266547 -2.23076923 6.89266547 -5.6875 7.375 C-8 7 -8 7 -11 5 C-10 2 -10 2 -7.75 0.25 C-4.52498292 -1.21591686 -3.28964898 -1.21197594 0 0 Z " fill="#1C1B19" transform="translate(57,49)"/>
<path d="M0 0 C-2.13725892 2.21641666 -4.26859074 4.21237408 -6.6875 6.125 C-9.06757788 7.79090954 -9.06757788 7.79090954 -10 10 C-10.66 10 -11.32 10 -12 10 C-12.33 10.66 -12.66 11.32 -13 12 C-13.32150943 7.90075477 -13.41384837 5.65644914 -11.1875 2.125 C-7.43395223 -1.52130355 -4.85858174 -0.97171635 0 0 Z " fill="#CBCBC8" transform="translate(143,78)"/>
<path d="M0 0 C0 0.66 0 1.32 0 2 C0.99 2 1.98 2 3 2 C3 2.66 3 3.32 3 4 C1.68 4 0.36 4 -1 4 C-1 5.65 -1 7.3 -1 9 C-0.34 9.33 0.32 9.66 1 10 C-0.65 10 -2.3 10 -4 10 C-4 8.68 -4 7.36 -4 6 C-5.32 5.67 -6.64 5.34 -8 5 C-8.28875 5.78375 -8.5775 6.5675 -8.875 7.375 C-10 10 -10 10 -12 12 C-12.625 9.375 -12.625 9.375 -12 6 C-8.6766138 3.32684153 -4.39617525 0 0 0 Z " fill="#C99F5E" transform="translate(41,61)"/>
<path d="M0 0 C0.3359375 2.265625 0.3359375 2.265625 0 5 C-2.3359375 6.984375 -2.3359375 6.984375 -5.375 8.75 C-6.37273437 9.34296875 -7.37046875 9.9359375 -8.3984375 10.546875 C-9.91596315 11.39450194 -11.44530247 12.22265123 -13 13 C-14 10 -14 10 -13 7 C-10.3125 5.17578125 -10.3125 5.17578125 -7 3.3125 C-5.906875 2.68988281 -4.81375 2.06726562 -3.6875 1.42578125 C-1 0 -1 0 0 0 Z " fill="#8D8D8B" transform="translate(85,60)"/>
<path d="M0 0 C0.66 0.33 1.32 0.66 2 1 C3.49933215 1.04475618 5.00050573 1.0389479 6.5 1 C10.77777778 0.88888889 10.77777778 0.88888889 13 2 C11.25 5.875 11.25 5.875 9 7 C2.8125 7.45833333 2.8125 7.45833333 -0.4375 5.625 C-2 4 -2 4 -2 2 C-1.34 2 -0.68 2 0 2 C0 1.34 0 0.68 0 0 Z " fill="#757574" transform="translate(113,110)"/>
<path d="M0 0 C2.99324263 1.0975223 3.84610901 1.67682892 5.25 4.625 C5.4975 5.40875 5.745 6.1925 6 7 C7.65 7 9.3 7 11 7 C10.01 7.66 9.02 8.32 8 9 C8.99 10.485 8.99 10.485 10 12 C9.0925 11.690625 8.185 11.38125 7.25 11.0625 C4.83436662 10.2727737 2.47219715 9.57050703 0 9 C0 7.68 0 6.36 0 5 C-0.66 5 -1.32 5 -2 5 C-1.34 3.35 -0.68 1.7 0 0 Z " fill="#989895" transform="translate(131,88)"/>
<path d="M0 0 C2.76535828 0.61452406 4.51792507 1.32287502 6.1875 3.66796875 C8.51486955 8.09168219 9.58621611 12.03459338 10 17 C9.01 16.67 8.02 16.34 7 16 C7 13.69 7 11.38 7 9 C5.35 9 3.7 9 2 9 C1.34 6.03 0.68 3.06 0 0 Z " fill="#35322E" transform="translate(65,65)"/>
<path d="M0 0 C1.32 0.33 2.64 0.66 4 1 C4.12375 1.78375 4.2475 2.5675 4.375 3.375 C4.79117993 6.14057822 4.79117993 6.14057822 7 8 C2.56923077 10.09230769 2.56923077 10.09230769 -0.3125 9.625 C-0.869375 9.41875 -1.42625 9.2125 -2 9 C-2.6875 7.3125 -2.6875 7.3125 -3 5 C-1.5625 2.25 -1.5625 2.25 0 0 Z " fill="#3E3730" transform="translate(33,66)"/>
<path d="M0 0 C1.98 0 3.96 0 6 0 C6 2.97 6 5.94 6 9 C4.02 9 2.04 9 0 9 C0 6.03 0 3.06 0 0 Z " fill="#EF5F21" transform="translate(154,135)"/>
<path d="M0 0 C3.45854519 3.45854519 4 7.21904213 4 12 C2.02 11.34 0.04 10.68 -2 10 C-2 8.02 -2 6.04 -2 4 C-2.99 4 -3.98 4 -5 4 C-5 3.01 -5 2.02 -5 1 C-3 0 -3 0 0 0 Z " fill="#5F5549" transform="translate(46,59)"/>
<path d="M0 0 C-5.75 4 -5.75 4 -8 4 C-8.061875 4.598125 -8.12375 5.19625 -8.1875 5.8125 C-9.33554682 8.90339529 -11.10547052 9.5880344 -14 11 C-14.66 11 -15.32 11 -16 11 C-15.8671875 8.7421875 -15.8671875 8.7421875 -15 6 C-12.3828125 3.9453125 -12.3828125 3.9453125 -9.125 2.125 C-8.05507812 1.50882812 -6.98515625 0.89265625 -5.8828125 0.2578125 C-3 -1 -3 -1 0 0 Z " fill="#F7F7F2" transform="translate(106,101)"/>
<path d="M0 0 C3.33333333 0 6.66666667 0 10 0 C11.28571429 7.42857143 11.28571429 7.42857143 10 11 C9.34 10.67 8.68 10.34 8 10 C8.185625 9.21625 8.37125 8.4325 8.5625 7.625 C9.25962266 5.02910225 9.25962266 5.02910225 8 3 C7.01 3.495 7.01 3.495 6 4 C3.6670134 4.04022391 1.33293334 4.04320247 -1 4 C-0.67 2.68 -0.34 1.36 0 0 Z " fill="#AEA7A0" transform="translate(116,108)"/>
<path d="M0 0 C0.33 0 0.66 0 1 0 C1 4.29 1 8.58 1 13 C3.5678125 13.0309375 3.5678125 13.0309375 6.1875 13.0625 C7.63189453 13.07990234 7.63189453 13.07990234 9.10546875 13.09765625 C11.85576513 13.00486622 14.32479591 12.62111685 17 12 C17 12.66 17 13.32 17 14 C14.04497399 15.69242399 11.90004978 16.27328801 8.5 16.25 C7.7471875 16.25515625 6.994375 16.2603125 6.21875 16.265625 C4 16 4 16 0 14 C0 9.38 0 4.76 0 0 Z " fill="#ADADAA" transform="translate(149,150)"/>
<path d="M0 0 C-1.17938001 3.53814003 -1.79172537 3.67980861 -4.9375 5.375 C-7.86538833 7.09821156 -8.85805207 7.73384763 -10.5 10.8125 C-10.665 11.534375 -10.83 12.25625 -11 13 C-11.66 13 -12.32 13 -13 13 C-13.375 10.3125 -13.375 10.3125 -13 7 C-9.15389802 3.15389802 -5.54660489 0 0 0 Z " fill="#F9F9F2" transform="translate(131,94)"/>
<path d="M0 0 C2.12161334 2.12161334 2.92986249 3.7733159 4.125 6.5 C4.47820312 7.2940625 4.83140625 8.088125 5.1953125 8.90625 C6 11 6 11 6 13 C5.34 13 4.68 13 4 13 C3.34 11.35 2.68 9.7 2 8 C1.34 8 0.68 8 0 8 C0 7.34 0 6.68 0 6 C-0.66 6 -1.32 6 -2 6 C-2 6.66 -2 7.32 -2 8 C-2.66 7.67 -3.32 7.34 -4 7 C-3.6875 4.625 -3.6875 4.625 -3 2 C-2.01 1.34 -1.02 0.68 0 0 Z " fill="#C5C6B9" transform="translate(88,58)"/>
<path d="M0 0 C2.02910711 0.25327449 4.04962145 0.57730068 6.0625 0.9375 C7.16722656 1.13214844 8.27195313 1.32679687 9.41015625 1.52734375 C10.69212891 1.76130859 10.69212891 1.76130859 12 2 C11.67 2.99 11.34 3.98 11 5 C7.8125 5.8125 7.8125 5.8125 4 6 C1.0625 3.5625 1.0625 3.5625 -1 1 C-0.67 0.67 -0.34 0.34 0 0 Z " fill="#979893" transform="translate(155,92)"/>
<path d="M0 0 C-0.0625 1.75 -0.0625 1.75 -1 4 C-4.2161819 6.44727466 -6.92394904 8 -11 8 C-10.9375 6.25 -10.9375 6.25 -10 4 C-6.7838181 1.55272534 -4.07605096 0 0 0 Z " fill="#F6F6F6" transform="translate(157,72)"/>
<path d="M0 0 C0.66 0.33 1.32 0.66 2 1 C0.79476952 4.61569144 -0.07185564 4.94669545 -3.3125 6.75 C-4.48232422 7.42289062 -4.48232422 7.42289062 -5.67578125 8.109375 C-8.30300917 9.11611108 -9.40927388 8.97226335 -12 8 C-9.38928701 5.93318555 -6.66162161 4.06890393 -3.875 2.25 C-3.19179687 1.80140625 -2.50859375 1.3528125 -1.8046875 0.890625 C-0.91136719 0.44976562 -0.91136719 0.44976562 0 0 Z " fill="#E5E5E5" transform="translate(145,81)"/>
<path d="M0 0 C-0.66 2.97 -1.32 5.94 -2 9 C-3.65 8.67 -5.3 8.34 -7 8 C-7 7.34 -7 6.68 -7 6 C-6.34 6 -5.68 6 -5 6 C-5 4.35 -5 2.7 -5 1 C-2 0 -2 0 0 0 Z " fill="#3A3A3A" transform="translate(147,99)"/>
<path d="M0 0 C0.99 0.99 1.98 1.98 3 3 C1.21118264 4.00508801 -0.58114696 5.00392736 -2.375 6 C-3.37273437 6.556875 -4.37046875 7.11375 -5.3984375 7.6875 C-8 9 -8 9 -10 9 C-8.54875366 5.17398693 -6.64225296 3.77670876 -3 2 C-2.01 2 -1.02 2 0 2 C0 1.34 0 0.68 0 0 Z " fill="#DE911B" transform="translate(76,82)"/>
<path d="M0 0 C0.66 0 1.32 0 2 0 C2.33 2.97 2.66 5.94 3 9 C2.01 9 1.02 9 0 9 C0 8.34 0 7.68 0 7 C-0.99 6.67 -1.98 6.34 -3 6 C-2.42655063 3.13275314 -2.1385485 2.1385485 0 0 Z " fill="#0A0A0A" transform="translate(38,83)"/>
<path d="M0 0 C3.78786597 0.5260925 6.17152224 1.38103911 9 4 C9 4.66 9 5.32 9 6 C9.99 6.33 10.98 6.66 12 7 C11.01 7 10.02 7 9 7 C9 7.66 9 8.32 9 9 C5.20596616 7.73532205 4.93315707 6.38302487 3 3 C1.41754725 1.24850835 1.41754725 1.24850835 0 0 Z " fill="#C27A1C" transform="translate(49,78)"/>
<path d="M0 0 C0.66 0 1.32 0 2 0 C2.268125 1.093125 2.53625 2.18625 2.8125 3.3125 C3.66536779 6.92204591 3.66536779 6.92204591 5.6875 8.6875 C6.120625 9.120625 6.55375 9.55375 7 10 C6.6875 12.1875 6.6875 12.1875 6 14 C5.01 14 4.02 14 3 14 C2.49528803 12.23050388 1.99639315 10.45934777 1.5 8.6875 C1.2215625 7.70136719 0.943125 6.71523437 0.65625 5.69921875 C0 3 0 3 0 0 Z " fill="#211D1B" transform="translate(47,58)"/>
<path d="M0 0 C3 0.125 3 0.125 4 1.125 C4.04080783 3.12458364 4.04254356 5.12545254 4 7.125 C3.67 5.805 3.34 4.485 3 3.125 C1.02 3.125 -0.96 3.125 -3 3.125 C-3 5.765 -3 8.405 -3 11.125 C-3.33 11.125 -3.66 11.125 -4 11.125 C-4.02688151 9.47925434 -4.04634123 7.83338587 -4.0625 6.1875 C-4.07410156 5.27097656 -4.08570313 4.35445312 -4.09765625 3.41015625 C-3.94828951 -0.08502547 -3.55969594 0.14832066 0 0 Z " fill="#B29685" transform="translate(157,131.875)"/>
<path d="M0 0 C-0.33 1.65 -0.66 3.3 -1 5 C-2.65 5.33 -4.3 5.66 -6 6 C-6.33 4.68 -6.66 3.36 -7 2 C-4 0 -4 0 0 0 Z " fill="#EBAF52" transform="translate(66,72)"/>
<path d="M0 0 C3.375 -0.125 3.375 -0.125 7 0 C7.66 0.66 8.32 1.32 9 2 C9.53625 2.495 10.0725 2.99 10.625 3.5 C12 5 12 5 12 7 C7.39104317 5.68315519 3.85859765 3.84801255 0 1 C0 0.67 0 0.34 0 0 Z " fill="#C98425" transform="translate(37,71)"/>
<path d="M0 0 C4.875 0.875 4.875 0.875 6 2 C6.04063832 3.66617115 6.042721 5.33388095 6 7 C3.13275314 6.42655063 2.1385485 6.1385485 0 4 C0 2.68 0 1.36 0 0 Z " fill="#AEAEAE" transform="translate(29,78)"/>
<path d="M0 0 C0.66 0.33 1.32 0.66 2 1 C2 1.66 2 2.32 2 3 C-4.4 7.06153846 -4.4 7.06153846 -7.4375 6.75 C-7.953125 6.5025 -8.46875 6.255 -9 6 C-3.30379747 1.25316456 -3.30379747 1.25316456 0 0 Z " fill="#E7E7E6" transform="translate(156,75)"/>
<path d="M0 0 C0 1.98 0 3.96 0 6 C-1.98 6 -3.96 6 -6 6 C-5.6875 4.125 -5.6875 4.125 -5 2 C-2 0 -2 0 0 0 Z " fill="#3D3D3C" transform="translate(165,88)"/>
<path d="M0 0 C0.33 0.66 0.66 1.32 1 2 C1.99 2.33 2.98 2.66 4 3 C3.34 5.97 2.68 8.94 2 12 C1.67 12 1.34 12 1 12 C1 10.35 1 8.7 1 7 C0.34 7 -0.32 7 -1 7 C-1.04254356 5.00045254 -1.04080783 2.99958364 -1 1 C-0.67 0.67 -0.34 0.34 0 0 Z " fill="#A6A08A" transform="translate(45,52)"/>
<path d="M0 0 C1.6045556 0.14148989 3.20863767 0.28835686 4.8125 0.4375 C5.70582031 0.51871094 6.59914063 0.59992188 7.51953125 0.68359375 C10 1 10 1 13 2 C9.31282562 4.45811625 7.35654296 4.31118164 3 4 C2.01 3.34 1.02 2.68 0 2 C0 1.34 0 0.68 0 0 Z " fill="#6E4838" transform="translate(112,113)"/>
<path d="M0 0 C0.99 0.66 1.98 1.32 3 2 C3 2.66 3 3.32 3 4 C3.66 4 4.32 4 5 4 C4.67 4.66 4.34 5.32 4 6 C2.68 5.67 1.36 5.34 0 5 C-0.33 5.99 -0.66 6.98 -1 8 C-1 6.68 -1 5.36 -1 4 C-1.66 4 -2.32 4 -3 4 C-2.67 3.01 -2.34 2.02 -2 1 C-1.34 0.67 -0.68 0.34 0 0 Z " fill="#484846" transform="translate(29,73)"/>
<path d="M0 0 C1.32 0.33 2.64 0.66 4 1 C4 2.32 4 3.64 4 5 C1.69 5.33 -0.62 5.66 -3 6 C-2.01 4.02 -1.02 2.04 0 0 Z " fill="#9A6523" transform="translate(33,66)"/>
<path d="M0 0 C2.97 0.495 2.97 0.495 6 1 C5.67 2.65 5.34 4.3 5 6 C4.01 6 3.02 6 2 6 C2 4.68 2 3.36 2 2 C1.34 2 0.68 2 0 2 C0 1.34 0 0.68 0 0 Z " fill="#D9A458" transform="translate(129,91)"/>
<path d="M0 0 C0.33 1.98 0.66 3.96 1 6 C0.01 6.33 -0.98 6.66 -2 7 C-2 6.01 -2 5.02 -2 4 C-2.99 4 -3.98 4 -5 4 C-5 3.01 -5 2.02 -5 1 C-3 0 -3 0 0 0 Z " fill="#7F725C" transform="translate(46,59)"/>
<path d="M0 0 C1.98 0.495 1.98 0.495 4 1 C4 2.32 4 3.64 4 5 C4.66 5.33 5.32 5.66 6 6 C3.625 5.6875 3.625 5.6875 1 5 C0.34 4.01 -0.32 3.02 -1 2 C-0.67 1.34 -0.34 0.68 0 0 Z " fill="#6B5028" transform="translate(58,85)"/>
<path d="M0 0 C-1 3 -1 3 -4.25 4.6875 C-7.54126631 5.83944321 -9.5872117 6.31025348 -13 6 C-10.35261084 4.5393715 -9.10551666 4 -6 4 C-6 3.34 -6 2.68 -6 2 C-2.25 0 -2.25 0 0 0 Z " fill="#8D8E88" transform="translate(135,161)"/>
<path d="M0 0 C1.32 0.99 2.64 1.98 4 3 C3.67 3.99 3.34 4.98 3 6 C0.08482708 4.92598892 -1.77810176 4.22189824 -4 2 C-2.68 1.34 -1.36 0.68 0 0 Z " fill="#CB7F1B" transform="translate(58,75)"/>
<path d="M0 0 C1.65 0 3.3 0 5 0 C5.66 2.97 6.32 5.94 7 9 C6.01 8.67 5.02 8.34 4 8 C4 5.69 4 3.38 4 1 C2.68 0.67 1.36 0.34 0 0 Z " fill="#674D30" transform="translate(68,73)"/>
<path d="M0 0 C2.475 0.99 2.475 0.99 5 2 C5 2.66 5 3.32 5 4 C3.35 4.33 1.7 4.66 0 5 C0 3.35 0 1.7 0 0 Z " fill="#949491" transform="translate(102,94)"/>
<path d="M0 0 C1.32 0 2.64 0 4 0 C4 1.65 4 3.3 4 5 C2.68 4.67 1.36 4.34 0 4 C0 2.68 0 1.36 0 0 Z " fill="#A26F28" transform="translate(67,74)"/>
<path d="M0 0 C3.875 1.875 3.875 1.875 5 3 C5.04080783 4.99958364 5.04254356 7.00045254 5 9 C4.67 9 4.34 9 4 9 C4 7.35 4 5.7 4 4 C2.35 3.67 0.7 3.34 -1 3 C-0.67 2.01 -0.34 1.02 0 0 Z " fill="#81796F" transform="translate(131,88)"/>
<path d="M0 0 C1.32 0.33 2.64 0.66 4 1 C4 2.65 4 4.3 4 6 C2.68 5.67 1.36 5.34 0 5 C0 3.35 0 1.7 0 0 Z " fill="#C97814" transform="translate(40,65)"/>
<path d="M0 0 C2.97 0.99 5.94 1.98 9 3 C8.01 3.66 7.02 4.32 6 5 C2.83884224 3.63016497 2.0072908 3.0109362 0 0 Z " fill="#8E9081" transform="translate(99,159)"/>
<path d="M0 0 C-0.33 0.99 -0.66 1.98 -1 3 C-2.65 2.67 -4.3 2.34 -6 2 C-6 1.34 -6 0.68 -6 0 C-3.50907189 -1.24546405 -2.58919267 -0.7767578 0 0 Z " fill="#8E8E89" transform="translate(146,105)"/>
<path d="M0 0 C2.86724686 0.57344937 3.8614515 0.8614515 6 3 C5.67 3.66 5.34 4.32 5 5 C2.525 4.01 2.525 4.01 0 3 C0 2.01 0 1.02 0 0 Z " fill="#A5A5A2" transform="translate(74,98)"/>
<path d="M0 0 C0.66 0 1.32 0 2 0 C0.62845496 2.95409701 -0.98863724 5.44008376 -3 8 C-3.66 7.67 -4.32 7.34 -5 7 C-4.34 5.68 -3.68 4.36 -3 3 C-2.34 3 -1.68 3 -1 3 C-0.67 2.01 -0.34 1.02 0 0 Z " fill="#CCCDBD" transform="translate(151,95)"/>
<path d="M0 0 C0.66 0 1.32 0 2 0 C2.66 2.64 3.32 5.28 4 8 C3.01 7.67 2.02 7.34 1 7 C0.67 4.69 0.34 2.38 0 0 Z " fill="#212120" transform="translate(26,77)"/>
<path d="M0 0 C0.99 0.33 1.98 0.66 3 1 C2.67 2.65 2.34 4.3 2 6 C1.01 6.33 0.02 6.66 -1 7 C-0.67 4.69 -0.34 2.38 0 0 Z " fill="#A97C3F" transform="translate(58,61)"/>
</svg>
